<?xml version="1.0" standalone="no"?>
<!DOCTYPE svg PUBLIC "-//W3C//DTD SVG 1.1//EN" "http://www.w3.org/Graphics/SVG/1.1/DTD/svg11.dtd" >
<svg xmlns="http://www.w3.org/2000/svg" xmlns:xlink="http://www.w3.org/1999/xlink" version="1.1">
<metadata>
Created by FontForge 20141024 at Mon Mar 30 08:32:59 2015
 By System Administrator
</metadata>
<defs>
<font id="IOS8-Icons-Regular" horiz-adv-x="512" >
  <font-face 
    font-family="IOS8-Icons"
    font-weight="400"
    font-stretch="normal"
    units-per-em="512"
    panose-1="2 0 0 0 0 0 0 0 0 0"
    ascent="480"
    descent="-32"
    bbox="0 -48 512 496"
    underline-thickness="0"
    underline-position="0"
    unicode-range="U+0001-E746"
  />
<missing-glyph horiz-adv-x="256" 
 />
    <glyph glyph-name=".notdef" horiz-adv-x="256" 
 />
    <glyph glyph-name="space" unicode=" " horiz-adv-x="256" 
 />
    <glyph glyph-name="uniE600" unicode="&#xe600;" 
d="M448 126h-136l91 -96h-294l91 96h-136v240h384v-240zM365 46l-109 116l-109 -116h218zM432 350h-352v-208h135l41 44l41 -44h135v208z" />
    <glyph glyph-name="uniE601" unicode="&#xe601;" 
d="M380 62q-51 -51 -124 -51t-124.5 51.5t-51.5 124.5t51.5 124.5t124.5 51.5t124.5 -51.5t51.5 -124.5t-52 -125zM369 300q-47 47 -113 47t-113 -47t-47 -113t47 -113t113 -47t113 47t47 113t-47 113zM272 171h-96v16h80v128h16v-144zM136 70l11 -11l-45 -46l-12 12z
M376 70l46 -45l-12 -12l-45 46zM70 277l-5 9q-9 18 -9 37q0 33 23.5 56.5t56.5 23.5q27 0 49 -17l8 -6zM136 387q-26 0 -45 -19t-19 -45q0 -11 3 -20l92 76q-16 8 -31 8zM442 277l-123 103l8 6q22 17 49 17q33 0 56.5 -23.5t23.5 -56.5q0 -20 -9 -37zM345 379l92 -76
q3 9 3 20q0 26 -19 45t-45 19q-15 0 -31 -8z" />
    <glyph glyph-name="uniE602" unicode="&#xe602;" 
d="M474 11h-432v320h432v-320zM58 27h400v288h-400v-288zM74 363h368v-16h-368v16zM106 395h304v-16h-304v16z" />
    <glyph glyph-name="uniE603" unicode="&#xe603;" 
d="M416 382q14 0 23 -9t9 -23v-256q0 -14 -9 -23t-23 -9h-128q-14 0 -23 -9t-9 -23h-16q0 14 -9 23t-23 9h-128q-14 0 -23 9t-9 23v256q0 14 9 23t23 9h128q25 0 40 -22q15 22 40 22h128zM208 78q18 0 32 -12v268q0 14 -9 23t-23 9h-128q-16 0 -16 -16v-256q0 -16 16 -16
h128zM432 350q0 16 -16 16h-128q-14 0 -23 -9t-9 -23v-268q14 12 32 12h128q16 0 16 16v256z" />
    <glyph glyph-name="uniE604" unicode="&#xe604;" 
d="M368 14h-304v304h304v-304zM80 30h272v272h-272v-272zM448 94h-64v16h48v272h-272v-48h-16v64h304v-304z" />
    <glyph glyph-name="uniE605" unicode="&#xe605;" 
d="M448 234q0 -85 -61 -143h1l-9 -8q-1 0 -1 -1q-1 0 -5.5 -4t-7.5 -6l-1 -1q-2 -1 -6.5 -4l-7.5 -5h-1q-23 -14 -48 -21q-3 0 -8.5 -1.5t-8.5 -2.5h-1q-12 -2 -16 -2h-2q-6 -1 -17 -1t-17 1h-2q-4 0 -16 2h-1q-3 1 -8.5 2.5t-8.5 1.5q-25 7 -48 21h-1q-3 2 -7 5t-7 4
q0 1 -2 1q-2 1 -6 4.5t-6 5.5l-1 1l-9 8q-60 58 -60 143q0 82 59 141t141 59t141 -59t59 -141zM372 98q60 55 60 136q0 76 -54 130t-130 54t-130 -54t-54 -130q0 -81 60 -136l5 3q8 4 23 9q9 4 29 8l8 2h5l3 1q3 3 5 26q2 14 0 22l-12 10v1q-3 7 -5 37l-11 5l-7 33v12l7 8
l-4 38q0 12 4 36l1 2l1 2q26 21 34 25q18 8 35 8h3h3h5q4 0 13 -2t17 -6t34 -25l1 -2l1 -2q4 -24 4 -36q0 -5 -0.5 -11t-1 -10.5t-1 -8t-1.5 -5.5v-3l7 -8v-14l-7 -31l-11 -5l-5 -37v-1q-1 -2 -4 -4.5t-6 -4.5l-2 -1v-22q2 -23 5 -26v0l8 -1l8 -2q18 -4 29 -8q18 -7 23 -9z
" />
    <glyph glyph-name="uniE609" unicode="&#xe609;" 
d="M416 195l-5 -2l-5 -1q-5 -2 -13.5 -4t-18.5 -4.5t-23 -4t-24 -1.5q-18 0 -86 17q-47 14 -66 14q-37 0 -63 -13v-178h-16v387l5 2q1 1 8.5 3.5t24 5t34.5 2.5q19 0 81 -16q58 -16 79 -16q17 0 35.5 5.5t29.5 10.5t11 6l12 6v-219zM400 388q-39 -18 -72 -18q-23 0 -83 16
q-58 16 -77 16q-32 0 -56 -8v-180q26 11 63 11q14 0 70 -14q64 -17 82 -17q25 0 73 12v182z" />
    <glyph glyph-name="uniE60A" unicode="&#xe60a;" 
d="M143 315q-16 -16 -39 -16t-39.5 16.5t-16.5 39.5t16.5 39.5t39.5 16.5t39.5 -16.5t16.5 -39.5t-17 -40zM132 383q-12 12 -28 12t-28 -12t-12 -28t12 -28t28 -12t28 12t12 28t-12 28zM287 315q-16 -16 -39 -16t-39.5 16.5t-16.5 39.5t16.5 39.5t39.5 16.5t39.5 -16.5
t16.5 -39.5t-17 -40zM276 383q-12 12 -28 12t-28 -12t-12 -28t12 -28t28 -12t28 12t12 28t-12 28zM431 315q-16 -16 -39 -16t-39.5 16.5t-16.5 39.5t16.5 39.5t39.5 16.5t39.5 -16.5t16.5 -39.5t-17 -40zM420 383q-12 12 -28 12t-28 -12t-12 -28t12 -28t28 -12t28 12t12 28
t-12 28zM143 171q-16 -16 -39 -16t-39.5 16.5t-16.5 39.5t16.5 39.5t39.5 16.5t39.5 -16.5t16.5 -39.5t-17 -40zM132 239q-12 12 -28 12t-28 -12t-12 -28t12 -28t28 -12t28 12t12 28t-12 28zM287 171q-16 -16 -39 -16t-39.5 16.5t-16.5 39.5t16.5 39.5t39.5 16.5t39.5 -16.5
t16.5 -39.5t-17 -40zM276 239q-12 12 -28 12t-28 -12t-12 -28t12 -28t28 -12t28 12t12 28t-12 28zM431 171q-16 -16 -39 -16t-39.5 16.5t-16.5 39.5t16.5 39.5t39.5 16.5t39.5 -16.5t16.5 -39.5t-17 -40zM420 239q-12 12 -28 12t-28 -12t-12 -28t12 -28t28 -12t28 12t12 28
t-12 28zM143 27q-16 -16 -39 -16t-39.5 16.5t-16.5 39.5t16.5 39.5t39.5 16.5t39.5 -16.5t16.5 -39.5t-17 -40zM132 95q-12 12 -28 12t-28 -12t-12 -28t12 -28t28 -12t28 12t12 28t-12 28zM287 27q-16 -16 -39 -16t-39.5 16.5t-16.5 39.5t16.5 39.5t39.5 16.5t39.5 -16.5
t16.5 -39.5t-17 -40zM276 95q-12 12 -28 12t-28 -12t-12 -28t12 -28t28 -12t28 12t12 28t-12 28zM431 27q-16 -16 -39 -16t-39.5 16.5t-16.5 39.5t16.5 39.5t39.5 16.5t39.5 -16.5t16.5 -39.5t-17 -40zM420 95q-12 12 -28 12t-28 -12t-12 -28t12 -28t28 -12t28 12t12 28
t-12 28z" />
    <glyph glyph-name="uniE60B" unicode="&#xe60b;" 
d="M198 147q-33 -33 -79 -33t-79 33t-33 79t33 79t79 33t79 -33t33 -79t-33 -79zM187 294q-28 28 -68 28t-68 -28t-28 -68t28 -68t68 -28t68 28t28 68t-28 68zM470 147q-33 -33 -79 -33t-79 33t-33 79t33 79t79 33t79 -33t33 -79t-33 -79zM459 294q-28 28 -68 28t-68 -28
t-28 -68t28 -68t68 -28t68 28t28 68t-28 68zM119 130h272v-16h-272v16z" />
    <glyph glyph-name="uniE60C" unicode="&#xe60c;" 
d="M117 170q-12 -12 -28 -12t-28 12t-12 28t12 28t28 12t28 -12t12 -28t-12 -28zM106 215q-7 7 -17 7t-17 -7t-7 -17t7 -17t17 -7t17 7t7 17t-7 17zM277 170q-12 -12 -28 -12t-28 12t-12 28t12 28t28 12t28 -12t12 -28t-12 -28zM266 215q-7 7 -17 7t-17 -7t-7 -17t7 -17
t17 -7t17 7t7 17t-7 17zM437 170q-12 -12 -28 -12t-28 12t-12 28t12 28t28 12t28 -12t12 -28t-12 -28zM426 215q-7 7 -17 7t-17 -7t-7 -17t7 -17t17 -7t17 7t7 17t-7 17z" />
    <glyph glyph-name="uniE60E" unicode="&#xe60e;" 
d="M368 64h-304v304h232v-16h-216v-272h272v216h16v-232zM406 370l-179 -178h-35v35l178 179l12 -12l-171 -170l13 -13l170 171zM427 411q5 -5 5 -11t-5 -11l-5 -6l-6 -6l-39 39l12 11q5 5 11 5t11 -5z" />
    <glyph glyph-name="uniE610" unicode="&#xe610;" 
d="M464 368v-288h-368v64h-64v288h368v-64h64zM96 160v208h288v48h-336v-256h48zM448 352h-336v-256h336v256z" />
    <glyph glyph-name="uniE612" unicode="&#xe612;" 
d="M314 98l-157 158l157 158l12 -12l-147 -146l147 -146z" />
    <glyph glyph-name="uniE615" unicode="&#xe615;" 
d="M448 95l-15 20q-46 67 -82 84t-95 17v-87l-198 135l198 135v-87q100 -1 146 -47.5t46 -144.5v-25zM240 232h8q32 0 48.5 -1.5t41.5 -9t47 -26.5t46 -50q-5 80 -48.5 115.5t-134.5 35.5h-8v73l-154 -105l154 -105v73z" />
    <glyph glyph-name="uniE617" unicode="&#xe617;" 
d="M378 102q-54 -54 -130 -54t-130 54t-54 130t54 130t130 54t130 -54t54 -130t-54 -130zM367 351q-49 49 -119 49t-119 -49t-49 -119t49 -119t119 -49t119 49t49 119t-49 119zM265 215q-7 -7 -17 -7t-17 7t-7 17t7 17t17 7t17 -7t7 -17t-7 -17zM256 232q0 8 -8 8t-8 -8
t8 -8t8 8zM240 368h16v-184h-16v184zM232 456h32v-56h-32v56zM393 419l34 -34l-17 -17l-34 34zM393 397l12 -12l-17 -17l-12 12z" />
    <glyph glyph-name="uniE619" unicode="&#xe619;" 
d="M48 248q0 84 59 141l11 -11q-54 -54 -54 -130t54 -130t130 -54t130 54t54 130q0 74 -51 127.5t-125 56.5v-80h-16v96h8q82 0 141 -59t59 -141t-59 -141t-141 -59t-141 59t-59 141zM259 259q13 -11 0 -22q-11 -13 -22 0l-56 78zM231 231l-1 1l-84 118l119 -85q7 -7 7 -17
q0 -8 -7 -17q-9 -7 -17 -7t-17 7zM243 242q5 -6 11 0q2 4 2 6q0 3 -2 5l-39 28z" />
    <glyph glyph-name="uniE61C" unicode="&#xe61c;" 
d="M400 32h-304v304h112v-16h-96v-272h272v272h-96v16h112v-304zM306 386l-50 51v-245h-16v245l-50 -51l-12 12l70 69l70 -69z" />
    <glyph glyph-name="uniE623" unicode="&#xe623;" 
d="M416 432q14 0 23 -9t9 -23v-320q0 -14 -9 -23t-23 -9h-320q-14 0 -23 9t-9 23v320q0 14 9 23t23 9h48v24q0 8 8 8t8 -8v-24h192v24q0 8 8 8t8 -8v-24h48zM96 416q-16 0 -16 -16v-64h352v64q0 16 -16 16h-48v-24q0 -8 -8 -8t-8 8v24h-192v-24q0 -8 -8 -8t-8 8v24h-48z
M416 64q16 0 16 16v240h-352v-240q0 -16 16 -16h320zM268 255q4 -2 4 -7v-112q0 -8 -8 -8t-8 8v97l-12 -8q-6 -4 -11 3q-4 6 3 11l24 16q3 2 8 0z" />
    <glyph glyph-name="uniE626" unicode="&#xe626;" 
d="M149 65q-5 2 -5 7v72h-80q-14 0 -23 9t-9 23v240q0 14 9 23t23 9h384q14 0 23 -9t9 -23v-240q0 -14 -9 -23t-23 -9h-213l-77 -78q-4 -2 -6 -2t-3 1zM64 432q-16 0 -16 -16v-240q0 -16 16 -16h88q8 0 8 -8v-61l66 67q4 2 6 2h216q16 0 16 16v240q0 16 -16 16h-384z
M185 279q-7 -7 -17 -7t-17 7t-7 17t7 17t17 7t17 -7t7 -17t-7 -17zM176 296q0 8 -8 8t-8 -8t8 -8t8 8zM281 279q-7 -7 -17 -7t-17 7t-7 17t7 17t17 7t17 -7t7 -17t-7 -17zM272 296q0 8 -8 8t-8 -8t8 -8t8 8zM377 279q-7 -7 -17 -7t-17 7t-7 17t7 17t17 7t17 -7t7 -17t-7 -17
zM368 296q0 8 -8 8t-8 -8t8 -8t8 8z" />
    <glyph glyph-name="uniE627" unicode="&#xe627;" 
d="M67 145q-3 3 -3 8l9 54q-41 38 -41 89q0 56 49 96t119 40t119 -40t49 -96t-49 -96t-119 -40q-38 0 -74 14l-50 -29q-1 -1 -4 -1t-5 1zM87 216q3 -3 2 -7l-6 -42l39 23q3 1 7 0q34 -14 71 -14q63 0 107.5 35t44.5 85t-44.5 85t-107.5 35t-107.5 -35t-44.5 -85
q0 -46 39 -80zM436 81l-50 29q-36 -14 -74 -14q-64 0 -110 34q-7 4 -2 11q4 6 11 2q43 -31 101 -31q37 0 71 14q4 1 7 0l39 -23l-6 42q-1 4 2 7q39 34 39 80q0 34 -23 63t-62 45q-8 2 -4 10q2 8 10 4q44 -16 69.5 -49t25.5 -73q0 -51 -41 -89l9 -54q0 -5 -3 -8q-2 -1 -5 -1
t-4 1z" />
    <glyph glyph-name="uniE628" unicode="&#xe628;" 
d="M392 64h-352q-8 0 -8 8v352q0 8 8 8h352q8 0 8 -8v-48q0 -8 -8 -8t-8 8v40h-336v-336h336v208q0 8 8 8t8 -8v-216q0 -8 -8 -8zM210 146l-80 80q-6 6 0 12t12 0l74 -75l250 251q6 6 12 0t0 -12l-256 -256q-4 -2 -6 -2t-6 2z" />
    <glyph glyph-name="uniE629" unicode="&#xe629;" 
d="M400 86q-63 -63 -152 -63t-152.5 63.5t-63.5 152.5t63.5 152.5t152.5 63.5t152.5 -63.5t63.5 -152.5t-64 -153zM389 380q-59 59 -141 59t-141 -59t-59 -141t59 -141t141 -59t141 59t59 141t-59 141zM240 239v128q0 8 8 8t8 -8v-128q0 -8 -8 -8t-8 8zM328 135q-4 0 -6 3
l-80 96q-6 6 1 11q6 6 11 -1l80 -96q6 -6 -1 -11q-2 -2 -5 -2zM240 399v16q0 8 8 8t8 -8v-16q0 -8 -8 -8t-8 8zM240 63v16q0 8 8 8t8 -8v-16q0 -8 -8 -8t-8 8zM168 370q-4 0 -7 4l-8 13q-4 8 3 11q7 5 11 -3l8 -13q4 -8 -3 -11q-1 -1 -4 -1zM336 79q-4 0 -7 4l-8 13
q-4 8 3 11q7 5 11 -3l8 -13q4 -8 -3 -11q-1 -1 -4 -1zM109 311q-2 0 -4 1l-13 8q-8 4 -3 11q3 7 11 3l13 -8q8 -4 3 -11q-1 -4 -7 -4zM400 143q-2 0 -4 1l-13 8q-8 4 -3 11q3 7 11 3l13 -8q8 -4 3 -11q-1 -4 -7 -4zM88 231h-16q-8 0 -8 8t8 8h16q8 0 8 -8t-8 -8zM424 231
h-16q-8 0 -8 8t8 8h16q8 0 8 -8t-8 -8zM96 143q-6 0 -7 4q-5 7 3 11l13 8q8 4 11 -3q5 -7 -3 -11l-13 -8q-2 -1 -4 -1zM387 311q-6 0 -7 4q-5 7 3 11l13 8q8 4 11 -3q5 -7 -3 -11l-13 -8q-2 -1 -4 -1zM160 79q-3 0 -4 1q-7 3 -3 11l8 13q4 8 11 3q7 -3 3 -11l-8 -13
q-3 -4 -7 -4zM328 370q-3 0 -4 1q-7 3 -3 11l8 13q4 8 11 3q7 -3 3 -11l-8 -13q-3 -4 -7 -4z" />
    <glyph glyph-name="uniE62B" unicode="&#xe62b;" 
d="M314 174q-25 -25 -62 -25t-62.5 25.5t-25.5 62.5t25.5 62.5t62.5 25.5t62.5 -25.5t25.5 -62.5t-26 -63zM303 288q-21 21 -51 21t-51 -21t-21 -51t21 -51t51 -21t51 21t21 51t-21 51zM268 21h-32q-10 0 -17 7t-7 17v29q-24 6 -48 20l-17 -18q-7 -7 -17 -7t-17 7l-22 22
q-16 16 0 34l18 17q-14 24 -20 48h-29q-10 0 -17 7t-7 17v32q0 10 7 17t17 7h29q6 24 20 48l-18 17q-7 7 -7 17t7 17l22 22q7 7 17 7t17 -7l17 -18q24 14 48 20v29q0 10 7 17t17 7h32q10 0 17 -7t7 -17v-29q24 -6 48 -20l17 18q7 7 17 7t17 -7l22 -22q16 -16 0 -34l-18 -17
q14 -24 20 -48h29q10 0 17 -7t7 -17v-32q0 -10 -7 -17t-17 -7h-29q-6 -24 -20 -48l18 -17q7 -7 7 -17t-7 -17l-22 -22q-7 -7 -17 -7t-17 7l-17 18q-24 -14 -48 -20v-29q0 -10 -7 -17t-17 -7zM163 112q1 0 2.5 -0.5t2.5 -0.5q25 -17 54 -23q6 -2 6 -8v-35q0 -8 8 -8h32
q8 0 8 8v35q0 6 6 8q29 6 54 23q5 4 10 -1l23 -23q5 -6 11 0l22 22q2 4 2 6q0 3 -2 5l-22 23q-7 4 -1 10q16 26 22 54q2 6 8 6h35q8 0 8 8v32q0 8 -8 8h-35q-6 0 -8 6q-6 29 -23 54q-4 5 1 10l23 23q6 5 0 11l-22 22q-6 6 -11 0l-23 -23q-5 -5 -10 -1q-25 17 -54 23
q-6 2 -6 8v35q0 8 -8 8h-32q-8 0 -8 -8v-35q0 -6 -6 -8q-28 -6 -54 -22q-6 -6 -10 1l-23 22q-5 6 -11 0l-22 -22q-2 -4 -2 -6q0 -3 2 -5l22 -23q7 -4 1 -10q-16 -26 -22 -54q-2 -6 -8 -6h-35q-8 0 -8 -8v-32q0 -8 8 -8h35q6 0 8 -6q6 -28 22 -54q5 -5 0 -10l-23 -23
q-6 -5 0 -11l22 -22q6 -6 11 0l23 23q2 2 5 2z" />
    <glyph glyph-name="uniE62C" unicode="&#xe62c;" 
d="M348 272q-4 0 -6 1l-14 6q-15 6 -9 21l4 10q-10 8 -14 13l-8 -3q-14 -5 -20 8l-6 14q-5 14 8 21l9 3q-1 10 0 20l-10 4q-6 1 -9 8q-1 6 0 12l6 15q6 14 21 8l9 -4l14 14l-3 8q-6 15 8 20l14 6q14 5 21 -8l3 -9q7 1 20 1l4 9q5 14 20 9l14 -6q15 -6 9 -21l-4 -9
q8 -6 14 -14l8 3q14 5 20 -8l6 -14q5 -14 -8 -21l-9 -3q2 -9 0 -20l10 -4q6 -1 9 -8q1 -6 0 -12l-6 -14q-6 -15 -21 -9l-10 4q-8 -10 -13 -14l3 -8q3 -6 0 -12t-8 -8l-14 -6q-14 -5 -21 8l-3 9q-10 -1 -20 0l-4 -10q-3 -10 -14 -10zM312 341q4 0 7 -3q7 -11 18 -19
q6 -3 3 -10l-6 -15l14 -6l6 16q2 6 9 4q14 -2 26 0q7 2 9 -4l6 -14l14 6l-7 13q-2 7 3 10q11 7 19 18q3 6 10 3l16 -6l5 14l-15 6q-7 2 -5 9q2 14 0 26q-2 7 4 9l14 6l-6 14l-13 -6q-6 -4 -10 2q-7 11 -18 19q-6 3 -3 10l6 16l-14 5l-6 -15q-2 -7 -9 -5q-9 2 -26 0
q-7 -2 -9 5l-6 14l-14 -6l7 -14q2 -5 -3 -10q-11 -7 -19 -18q-4 -6 -10 -3l-16 6l-5 -14l15 -6q7 -2 5 -9q-2 -14 0 -26q2 -7 -4 -9l-14 -6l6 -13l13 6h3zM237 147q-19 -19 -45 -19t-45 19t-19 45t19 45t45 19t45 -19t19 -45t-19 -45zM226 226q-14 14 -34 14t-34 -14
t-14 -34t14 -34t34 -14t34 14t14 34t-14 34zM204 32h-24q-8 0 -14 6t-6 14v19q-20 5 -32 14l-11 -12q-6 -6 -14.5 -6t-13.5 6l-16 16q-14 14 0 28l12 11q-10 16 -14 32h-19q-8 0 -14 6t-6 14v24q0 8 6 14t14 6h19q5 20 14 32l-12 11q-6 6 -6 14t6 14l16 16q5 6 13.5 6
t14.5 -6l11 -12q12 9 32 14v19q0 8 6 14t14 6h24q8 0 14 -6t6 -14v-19q20 -5 32 -14l11 12q6 6 14.5 6t13.5 -6l16 -16q14 -14 0 -28l-12 -11q10 -16 14 -32h19q8 0 14 -6t6 -14v-24q0 -8 -6 -14t-14 -6h-19q-5 -20 -14 -32l12 -11q6 -6 6 -14t-6 -14l-16 -16
q-5 -6 -13.5 -6t-14.5 6l-11 12q-16 -10 -32 -14v-19q0 -8 -6 -14t-14 -6zM127 103q1 0 5 -2q17 -12 38 -16q6 0 6 -8v-25q0 -4 4 -4h24q4 0 4 4v25q0 8 6 8q21 4 38 16q6 4 11 -1l16 -16l2 -1q2 0 3 1l16 16q1 1 1 3q0 1 -1 2l-16 17q-4 3 -1 10q12 17 16 38q0 6 8 6h25
q4 0 4 4v24q0 4 -4 4h-25q-8 0 -8 6q-5 23 -16 38q-3 7 1 11l16 16q2 2 0 5l-16 16q-2 2 -5 0l-16 -16q-4 -4 -11 -1q-17 12 -38 16q-6 2 -6 8v25q0 4 -4 4h-24q-4 0 -4 -4v-25q0 -6 -6 -8q-21 -4 -38 -16q-7 -3 -11 1l-16 16l-2 1q-2 0 -3 -1l-16 -16q-1 -1 -1 -3
q0 -1 1 -2l16 -16q4 -4 1 -11q-12 -17 -16 -38q0 -6 -8 -6h-25q-4 0 -4 -4v-24q0 -4 4 -4h25q8 0 8 -6q5 -23 16 -38q3 -7 -1 -11l-16 -16q-2 -2 0 -5l16 -16q1 -1 3 -1q1 0 2 1l17 16q2 3 5 3zM404 348q-12 -12 -28 -12t-28 12t-12 28t12 28t28 12t28 -12t12 -28t-12 -28z
M393 393q-7 7 -17 7t-17 -7t-7 -17t7 -17t17 -7t17 7t7 17t-7 17z" />
    <glyph glyph-name="uniE62D" unicode="&#xe62d;" 
d="M479 310l-1 -1l-216 -288l-2 -2h-1q-1 -1 -3 -1t-3 1h-1l-2 2l-216 288q-1 0 -1 1v1q-1 1 -1 2v1v2l1 1q0 1 1 2v1l112 112q2 1 3 1q1 1 3 1h208q2 0 3 -1q1 0 2 -1h1l112 -112q1 -2 1 -3l1 -1v-2v-1l-1 -2v-1zM163 306l93 -256l93 256h-186zM342 322l-86 92l-86 -92h172
zM352 418h-78l78 -84v84zM238 418h-78v-84zM144 407l-85 -85h85v85zM56 306l174 -232l-84 232h-90zM282 74l174 232h-90zM453 322l-85 85v-85h85z" />
    <glyph glyph-name="uniE62E" unicode="&#xe62e;" 
d="M448 316q32 -22 32 -60t-32 -60v-112q0 -8 -6 -14t-14 -6q-9 0 -16 7q0 1 -9 11.5t-27 26.5t-41 31t-55 25.5t-64 10.5h-33l24 -90q3 -9 -2 -15q-6 -7 -14 -7h-24q-18 0 -23 18l-25 94h-7q-33 0 -56.5 23.5t-23.5 56.5t23.5 56.5t56.5 23.5h104q51 0 100 26.5t72.5 50.5
t23.5 27q6 8 16 8q8 0 14 -6t6 -14v-112zM112 320q-26 0 -45 -19t-19 -45t19 -45t45 -19h96v128h-96zM167 176h-32l24 -90q2 -6 8 -6h24h1v2zM432 428q0 2 -3 3.5t-4 -0.5q-2 -3 -10.5 -13t-27.5 -26.5t-42 -31.5t-55.5 -27t-65.5 -13v-128q33 -1 65.5 -13t55.5 -27
t42 -31.5t27.5 -26.5t10.5 -13q1 0 2 -1h1q4 0 4 4v344zM448 217q16 16 16 39t-16 39v-78z" />
    <glyph glyph-name="uniE62F" unicode="&#xe62f;" 
d="M274 27l-64 64q-2 4 -2 6v173l-158 157q-4 5 -1 9q2 5 7 5h384q5 0 7 -5q3 -4 -1 -9l-158 -157v-237q0 -5 -5 -7q-1 -1 -3 -1t-6 2zM224 100l48 -48v221q0 2 2 6l147 146h-346l147 -146q2 -4 2 -6v-173z" />
    <glyph glyph-name="uniE640" unicode="&#xe640;" 
d="M264 32q-96 0 -164 68t-68 164q0 69 39 128t102 87q4 3 8 -1q5 -3 3 -9q-16 -38 -16 -77q0 -89 63.5 -152.5t152.5 -63.5q49 0 85 15q4 3 8 -1q5 -3 3 -9q-26 -68 -84.5 -108.5t-131.5 -40.5zM162 456q-52 -29 -83 -81t-31 -111q0 -89 63.5 -152.5t152.5 -63.5
q64 0 116 33t78 89q-31 -10 -74 -10q-96 0 -164 68t-68 164q0 28 10 64z" />
    <glyph glyph-name="uniE646" unicode="&#xe646;" 
d="M80 211q0 82 59 141t141 59t141 -59t59 -141t-59 -141t-141 -59q-8 0 -8 8t8 8q76 0 130 54t54 130t-54 130t-130 54t-130 -54t-54 -130v-13l50 51q6 6 12 0t0 -12l-64 -64q-2 -1 -3 -1q-1 -1 -3 -1t-3 1q-1 0 -2 1h-1l-64 64q-6 6 0 12t12 0l50 -51v13zM376 203h-96
q-8 0 -8 8v128q0 8 8 8t8 -8v-120h88q8 0 8 -8t-8 -8z" />
    <glyph glyph-name="uniE647" unicode="&#xe647;" 
d="M467 215q0 -1 -1 -2v-1l-48 -48q-4 -2 -6 -2t-6 2q-6 6 0 12l35 34h-181v-181l34 35q6 6 12 0t0 -12l-48 -48q-2 -1 -3 -1q-1 -1 -3 -1t-3 1q-1 0 -2 1h-1l-48 48q-6 6 0 12t12 0l34 -35v181h-181l35 -34q6 -6 0 -12q-4 -2 -6 -2t-6 2l-48 48q-1 2 -1 3q-1 3 0 6q0 1 1 2
v1l48 48q6 6 12 0t0 -12l-35 -34h181v181l-34 -35q-6 -6 -12 0t0 12l48 48q2 1 3 1q3 1 6 0q1 0 2 -1h1l48 -48q6 -6 0 -12q-4 -2 -6 -2t-6 2l-34 35v-181h181l-35 34q-6 6 0 12t12 0l48 -48q1 -2 1 -3q1 -3 0 -6z" />
    <glyph glyph-name="uniE648" unicode="&#xe648;" 
d="M281 203q-9 -9 -23 -9t-23 9t-9 23t9 23t23 9t23 -9t9 -23t-9 -23zM274 226q0 16 -16 16t-16 -16t16 -16t16 16zM464 32q6 -6 0 -12q-4 -2 -6 -2t-6 2l-130 131v-77q0 -8 -8 -8t-8 8v96q0 2 1 3q0 4 4 4q1 1 3 1h96q8 0 8 -8t-8 -8h-77zM452 432q6 6 12 0t0 -12
l-131 -130h77q8 0 8 -8t-8 -8h-96q-2 0 -3 1q-4 0 -4 4q-1 1 -1 3v96q0 8 8 8t8 -8v-77zM209 173q1 -1 1 -3v-96q0 -8 -8 -8t-8 8v77l-130 -131q-4 -2 -6 -2t-6 2q-6 6 0 12l131 130h-77q-8 0 -8 8t8 8h96q2 0 3 -1q4 0 4 -4zM210 282q0 -2 -1 -3q0 -4 -4 -4q-1 -1 -3 -1
h-96q-8 0 -8 8t8 8h77l-131 130q-6 6 0 12t12 0l130 -131v77q0 8 8 8t8 -8v-96z" />
    <glyph glyph-name="uniE649" unicode="&#xe649;" 
d="M465 32q6 -6 0 -12q-4 -2 -6 -2t-6 2l-130 131v-77q0 -8 -8 -8t-8 8v96q0 2 1 3q0 4 4 4q1 1 3 1h96q8 0 8 -8t-8 -8h-77zM453 432q6 6 12 0t0 -12l-131 -130h77q8 0 8 -8t-8 -8h-96q-2 0 -3 1q-4 0 -4 4q-1 1 -1 3v96q0 8 8 8t8 -8v-77zM210 173q1 -1 1 -3v-96
q0 -8 -8 -8t-8 8v77l-130 -131q-4 -2 -6 -2t-6 2q-6 6 0 12l131 130h-77q-8 0 -8 8t8 8h96q2 0 3 -1q4 0 4 -4zM211 282q0 -2 -1 -3q0 -4 -4 -4q-1 -1 -3 -1h-96q-8 0 -8 8t8 8h77l-131 130q-6 6 0 12t12 0l130 -131v77q0 8 8 8t8 -8v-96z" />
    <glyph glyph-name="uniE64A" unicode="&#xe64a;" 
d="M191 294q6 -6 0 -12q-4 -2 -6 -2t-6 2l-114 115v-77q0 -8 -8 -8t-8 8v96q0 2 1 3q0 4 4 4q1 1 3 1h96q8 0 8 -8t-8 -8h-77zM464 419q1 -1 1 -3v-96q0 -8 -8 -8t-8 8v77l-114 -115q-4 -2 -6 -2t-6 2q-6 6 0 12l115 114h-77q-8 0 -8 8t8 8h96q2 0 3 -1q4 0 4 -4zM179 150
q6 6 12 0t0 -12l-115 -114h77q8 0 8 -8t-8 -8h-96q-2 0 -3 1q-4 0 -4 4q-1 1 -1 3v96q0 8 8 8t8 -8v-77zM465 16q0 -2 -1 -3q0 -4 -4 -4q-1 -1 -3 -1h-96q-8 0 -8 8t8 8h77l-115 114q-6 6 0 12t12 0l114 -115v77q0 8 8 8t8 -8v-96zM280 193q-9 -9 -23 -9t-23 9t-9 23t9 23
t23 9t23 -9t9 -23t-9 -23zM273 216q0 16 -16 16t-16 -16t16 -16t16 16z" />
    <glyph glyph-name="uniE64B" unicode="&#xe64b;" 
d="M206 282q6 -6 0 -12q-4 -2 -6 -2t-6 2l-130 131v-77q0 -8 -8 -8t-8 8v96q0 2 1 3q0 4 4 4q1 1 3 1h96q8 0 8 -8t-8 -8h-77zM463 423q1 -1 1 -3v-96q0 -8 -8 -8t-8 8v77l-130 -131q-4 -2 -6 -2t-6 2q-6 6 0 12l131 130h-77q-8 0 -8 8t8 8h96q2 0 3 -1q4 0 4 -4zM194 170
q6 6 12 0t0 -12l-131 -130h77q8 0 8 -8t-8 -8h-96q-2 0 -3 1q-4 0 -4 4q-1 1 -1 3v96q0 8 8 8t8 -8v-77zM464 20q0 -2 -1 -3q0 -4 -4 -4q-1 -1 -3 -1h-96q-8 0 -8 8t8 8h77l-131 130q-6 6 0 12t12 0l130 -131v77q0 8 8 8t8 -8v-96z" />
    <glyph glyph-name="uniE64C" unicode="&#xe64c;" 
d="M240 0q-80 0 -136 56t-56 136t56 136t136 56h133l-51 50q-6 6 0 12q4 2 6 2t6 -2l64 -64q1 -2 1 -3q1 -3 0 -6q0 -1 -1 -2v-1l-64 -64q-6 -6 -12 0t0 12l51 50h-133q-73 0 -124.5 -51.5t-51.5 -124.5t51.5 -124.5t124.5 -51.5h152q8 0 8 -8t-8 -8h-152z" />
    <glyph glyph-name="uniE64D" unicode="&#xe64d;" 
d="M479 327q0 -1 -1 -2v-1l-80 -80q-4 -2 -6 -2t-6 2q-6 6 0 12l67 66h-413q-8 0 -8 8t8 8h413l-67 66q-6 6 0 12t12 0l80 -80q1 -2 1 -3q1 -3 0 -6zM472 130q8 0 8 -8t-8 -8h-413l67 -66q6 -6 0 -12q-4 -2 -6 -2t-6 2l-80 80q-1 2 -1 3q-1 3 0 6q0 1 1 2v1l80 80q6 6 12 0
t0 -12l-67 -66h413z" />
    <glyph glyph-name="uniE64E" unicode="&#xe64e;" 
d="M388 334q44 0 74 -32t30 -80t-30 -80t-74 -32q-40 0 -73 35l-45 48q-6 6 1 11q6 6 11 -1l45 -48q29 -29 61 -29q38 0 63 27t25 69t-25 69t-63 27q-32 0 -61 -29v-1l-138 -143v-1q-34 -34 -73 -34q-44 0 -74 32t-30 80t30 80t74 32q39 0 73 -34v-1l31 -33v44q0 8 8 8t8 -8
v-64v-2q-1 0 -1 -1v-1q-1 -1 -1 -2h-1q-1 -1 -2 -1q-1 -1 -2 -1h-1h-64q-8 0 -8 8t8 8h46l-33 35q-29 29 -61 29q-38 0 -63 -27t-25 -69t25 -69t63 -27q32 0 61 29v1l138 143v1q34 34 73 34z" />
    <glyph glyph-name="uniE64F" unicode="&#xe64f;" 
d="M467 128q6 6 12 0t0 -12l-64 -64q-2 -1 -3 -1q-1 -1 -3 -1t-3 1q-1 0 -2 1h-1l-64 64q-6 6 0 12t12 0l50 -51v133q0 73 -51.5 124.5t-124.5 51.5t-124.5 -51.5t-51.5 -124.5v-152q0 -8 -8 -8t-8 8v152q0 80 56 136t136 56t136 -56t56 -136v-133z" />
    <glyph glyph-name="uniE650" unicode="&#xe650;" 
d="M479 357q0 -1 -1 -2v-1l-48 -48q-4 -2 -6 -2t-6 2q-6 6 0 12l35 34h-325q-33 0 -56.5 -23.5t-23.5 -56.5v-8q0 -8 -8 -8t-8 8v8q0 40 28 68t68 28h325l-35 34q-6 6 0 12t12 0l48 -48q1 -2 1 -3q1 -3 0 -6zM464 248q0 8 8 8t8 -8v-8q0 -40 -28 -68t-68 -28h-325l35 -34
q6 -6 0 -12q-4 -2 -6 -2t-6 2l-48 48q-1 2 -1 3q-1 3 0 6q0 1 1 2v1l48 48q6 6 12 0t0 -12l-35 -34h325q33 0 56.5 23.5t23.5 56.5v8z" />
    <glyph glyph-name="uniE651" unicode="&#xe651;" 
d="M288 408q80 0 136 -56t56 -136t-56 -136t-136 -56q-63 0 -113 37t-70 96q-2 8 5 11q8 2 10 -6q18 -55 64 -88.5t104 -33.5q73 0 124.5 51.5t51.5 124.5t-51.5 124.5t-124.5 51.5q-69 0 -120 -47.5t-56 -116.5l50 50q6 6 12 0t0 -12l-64 -64q-4 -2 -6 -2t-6 2l-64 64
q-6 6 0 12t12 0l50 -51q5 76 60.5 128.5t131.5 52.5z" />
    <glyph glyph-name="uniE652" unicode="&#xe652;" 
d="M260 440q80 0 136 -56t56 -136t-56 -136t-136 -56h-133l51 -50q6 -6 0 -12q-4 -2 -6 -2t-6 2l-64 64q-1 2 -1 3q-1 3 0 6q0 1 1 2v1l64 64q6 6 12 0t0 -12l-51 -50h133q73 0 124.5 51.5t51.5 124.5t-51.5 124.5t-124.5 51.5h-152q-8 0 -8 8t8 8h152z" />
    <glyph glyph-name="uniE653" unicode="&#xe653;" 
d="M479 109q0 -1 -1 -2v-1l-48 -48q-4 -2 -6 -2t-6 2q-6 6 0 12l35 34h-77q-26 0 -49.5 13t-34.5 25t-26 33l-6 9q-5 5 1 11q8 4 12 -2q2 -2 6 -8q14 -20 24 -31t30 -22.5t43 -11.5h77l-35 34q-6 6 0 12t12 0l48 -48q1 -2 1 -3q1 -3 0 -6zM229 237q-4 0 -7 3q-1 2 -3 4t-3 4
q-15 20 -24.5 31t-29 22t-42.5 11h-80q-8 0 -8 8t8 8h80q26 0 49.5 -13t33.5 -24.5t26 -32.5q4 -6 6 -8q5 -7 -1 -11q-2 -2 -5 -2zM479 317q0 -1 -1 -2v-1l-48 -48q-4 -2 -6 -2t-6 2q-6 6 0 12l35 34h-77q-13 0 -25.5 -3.5t-22.5 -9t-19 -13t-16.5 -15.5t-13.5 -16
t-10.5 -15.5t-7.5 -13.5l-5 -10l-1 -3q-1 -3 -5.5 -13t-16 -27t-26.5 -32t-38 -26t-49 -11h-80q-8 0 -8 8t8 8h80q13 0 25.5 3.5t22.5 9t19 13t16.5 15.5t13.5 16t10.5 15.5t7.5 13.5l5 10l1 3q1 3 5.5 13t16 27t26.5 32t38 26t49 11h77l-35 34q-6 6 0 12t12 0l48 -48
q1 -2 1 -3q1 -3 0 -6z" />
    <glyph glyph-name="uniE654" unicode="&#xe654;" 
d="M479 162q6 -6 0 -12q-4 -2 -6 -2t-6 2l-35 36q-7 -67 -57 -112.5t-118 -45.5q-58 0 -105 35t-64 90q-2 8 6 10q6 3 10 -5q15 -50 58 -82t95 -32q60 0 105 40t53 99l-32 -33q-6 -6 -12 0t0 12l48 48q2 1 3 1q3 1 6 0q1 0 2 -1h1zM426 254q2 -7 -6 -10q-6 -2 -10 6
q-15 50 -58 82t-95 32q-60 0 -105 -40t-53 -99l32 33q6 6 12 0t0 -12l-48 -48q-2 -1 -3 -1q-1 -1 -3 -1t-3 1q-1 0 -2 1h-1l-48 48q-6 6 0 12t12 0l35 -36q7 67 57 112.5t118 45.5q58 0 105.5 -35.5t63.5 -90.5z" />
    <glyph glyph-name="uniE655" unicode="&#xe655;" 
d="M96 237q0 80 56 136t136 56t136 -56t56 -136v-152q0 -8 -8 -8t-8 8v152q0 73 -51.5 124.5t-124.5 51.5t-124.5 -51.5t-51.5 -124.5v-133l50 51q6 6 12 0t0 -12l-64 -64q-2 -1 -3 -1q-1 -1 -3 -1t-3 1q-1 0 -2 1h-1l-64 64q-6 6 0 12t12 0l50 -51v133z" />
    <glyph glyph-name="uniE656" unicode="&#xe656;" 
d="M238 360q6 -6 0 -12q-4 -2 -6 -2t-6 2l-66 67v-413q0 -8 -8 -8t-8 8v413l-66 -67q-6 -6 -12 0t0 12l80 80q2 1 3 1q3 1 6 0q1 0 2 -1h1zM434 88q6 6 12 0t0 -12l-80 -80q-2 -1 -3 -1q-1 -1 -3 -1t-3 1q-1 0 -2 1h-1l-80 80q-6 6 0 12t12 0l66 -67v413q0 8 8 8t8 -8v-413z
" />
    <glyph glyph-name="uniE657" unicode="&#xe657;" 
d="M276 89q-8 -9 -19 -9t-19.5 8.5t-8.5 19.5t8.5 19t19.5 8t19 -8t8 -19t-8 -19zM233 176v128q0 10 7 17t17 7t17 -7t7 -17v-128q0 -10 -7 -17t-17 -7t-17 7t-7 17zM433 24h-352q-23 0 -39.5 16.5t-16.5 39.5q0 19 6 25v1l180 278v1q18 23 46 23t46 -23v-1l180 -278v-1
q6 -12 6 -25q0 -23 -16.5 -39.5t-39.5 -16.5zM45 98q-4 -12 -4 -18q0 -16 12 -28t28 -12h352q16 0 28 12t12 28q0 6 -4 18l-180 278q-11 16 -32 16t-32 -16z" />
    <glyph glyph-name="uniE658" unicode="&#xe658;" 
d="M470 366h-56v8q0 8 -8 8h-16q-8 0 -8 -8v-8h-256v8q0 8 -8 8h-16q-8 0 -8 -8v-8h-56q-8 0 -8 -8v-320q0 -8 8 -8h432q8 0 8 8v320q0 8 -8 8zM462 46h-416v304h416v-304zM302 382q0 16 -16 16h-64q-16 0 -16 -16q0 -8 -8 -8t-8 8q0 14 9 23t23 9h64q14 0 23 -9t9 -23
q0 -8 -8 -8t-8 8z" />
    <glyph glyph-name="uniE659" unicode="&#xe659;" 
d="M416 360q14 0 23 -9t9 -23v-56q0 -8 -8 -8h-8v-224q0 -14 -9 -23t-23 -9h-304q-14 0 -23 9t-9 23v224h-8q-8 0 -8 8v56q0 14 9 23t23 9h28q-12 14 -12 32q0 20 14 34t34 14t34 -14l70 -63l70 63q14 14 34 14t34 -14t14 -34q0 -18 -12 -32h28zM432 328q0 16 -16 16h-160
v-64h176v48zM352 360q14 0 23 9t9 23t-9 23t-23 9t-23 -9v-1l-60 -54h83zM167 415q-9 9 -23 9t-23 -9t-9 -23t9 -23t23 -9h83l-60 54v1zM80 344q-16 0 -16 -16v-48h176v64h-160zM80 40q0 -16 16 -16h144v240h-160v-224zM416 264h-160v-240h144q16 0 16 16v224z" />
    <glyph glyph-name="uniE65A" unicode="&#xe65a;" 
d="M196 206q-12 -12 -28 -12t-28 12t-12 28t12 28t28 12t28 -12t12 -28t-12 -28zM185 251q-7 7 -17 7t-17 -7t-7 -17t7 -17t17 -7t17 7t7 17t-7 17zM224 122q0 23 -16.5 39.5t-39.5 16.5t-39.5 -16.5t-16.5 -39.5q0 -8 -8 -8t-8 8q0 30 21 51t51 21t51 -21t21 -51
q0 -8 -8 -8t-8 8zM448 354q14 0 23 -9t9 -23v-256q0 -14 -9 -23t-23 -9h-384q-14 0 -23 9t-9 23v256q0 14 9 23t23 9h160v56q0 8 8 8h48q8 0 8 -8v-56h160zM240 322h32v80h-32v-80zM464 322q0 16 -16 16h-160v-24q0 -8 -8 -8h-48q-8 0 -8 8v24h-160q-16 0 -16 -16v-256
q0 -16 16 -16h384q16 0 16 16v256zM408 258h-112q-8 0 -8 8t8 8h112q8 0 8 -8t-8 -8zM408 210h-112q-8 0 -8 8t8 8h112q8 0 8 -8t-8 -8zM408 162h-112q-8 0 -8 8t8 8h112q8 0 8 -8t-8 -8zM408 114h-112q-8 0 -8 8t8 8h112q8 0 8 -8t-8 -8z" />
    <glyph glyph-name="uniE65C" unicode="&#xe65c;" 
d="M404 302q-12 -12 -28 -12t-28 12t-12 28t12 28t28 12t28 -12t12 -28t-12 -28zM393 347q-7 7 -17 7t-17 -7t-7 -17t7 -17t17 -7t17 7t7 17t-7 17zM185 11l-128 128q-9 9 -9 23t9 23l216 224q9 9 23 9h136q14 0 23 -9t9 -23v-136q0 -14 -9 -23l-224 -216q-9 -9 -23 -9
t-23 9zM296 402q-6 0 -11 -5l-216 -224q-5 -5 -5 -11t5 -11l128 -128q11 -11 22 0l224 216q5 5 5 11v136q0 16 -16 16h-136z" />
    <glyph glyph-name="uniE65D" unicode="&#xe65d;" 
d="M356 308q-12 -12 -28 -12t-28 12t-12 28t12 28t28 12t28 -12t12 -28t-12 -28zM345 353q-7 7 -17 7t-17 -7t-7 -17t7 -17t17 -7t17 7t7 17t-7 17zM168 40q-13 0 -22 9l-105 105q-9 9 -9 22q0 14 9 23l208 215q9 10 23 10h112q14 0 23 -9t9 -23v-112q0 -14 -9 -23
l-216 -208q-9 -9 -23 -9zM272 408q-7 0 -12 -5l-207 -215q-5 -5 -5 -12q0 -6 5 -11l104 -104q11 -11 23 0l215 207q5 5 5 12v112q0 16 -16 16h-112zM233 8q-14 0 -23 9l-8 10q-6 6 1 11q6 6 11 -1l8 -9q11 -11 22 1l215 207q5 5 5 12v112q0 16 -16 16h-8q-8 0 -8 8t8 8h8
q14 0 23 -9t9 -23v-112q0 -13 -9 -24l-216 -207q-7 -9 -22 -9z" />
    <glyph glyph-name="uniE65E" unicode="&#xe65e;" 
d="M408 281q33 -21 52.5 -55t19.5 -74q0 -63 -44.5 -107.5t-107.5 -44.5q-38 0 -72 18q-34 -18 -72 -18q-63 0 -107.5 44.5t-44.5 107.5q0 40 19.5 74t52.5 55q1 62 45.5 106.5t106.5 44.5t106.5 -44.5t45.5 -106.5zM335 169q52 39 57 103q-30 16 -64 16q-30 0 -56 -12
q55 -41 63 -107zM120 272q5 -64 57 -103q8 66 63 107q-26 12 -56 12q-34 0 -64 -16zM192 160q30 -16 64 -16t64 16q-5 69 -64 107q-59 -38 -64 -107zM320 142q-31 -14 -64 -14t-64 14q6 -70 64 -105q58 35 64 105zM392 290q-5 53 -43.5 89.5t-92.5 36.5t-92.5 -36.5
t-43.5 -89.5q31 14 64 14q38 0 72 -18q34 18 72 18q33 0 64 -14zM184 16q30 0 56 12q-64 47 -64 123q-62 39 -71 112q-57 -42 -57 -111q0 -56 40 -96t96 -40zM328 16q56 0 96 40t40 96q0 69 -57 111q-9 -73 -71 -112q0 -76 -64 -123q26 -12 56 -12z" />
    <glyph glyph-name="uniE660" unicode="&#xe660;" 
d="M256 427q44 0 83 -16.5t68 -45.5t45.5 -68t16.5 -83t-16.5 -83t-45.5 -68t-68 -45.5t-83 -16.5t-83 16.5t-68 45.5t-45.5 68t-16.5 83t16.5 83t45.5 68t68 45.5t83 16.5zM363 235h-214v-42h214v42z" />
    <glyph glyph-name="uniE661" unicode="&#xe661;" 
d="M256 427q44 0 83 -16.5t68 -45.5t45.5 -68t16.5 -83t-16.5 -83t-45.5 -68t-68 -45.5t-83 -16.5t-83 16.5t-68 45.5t-45.5 68t-16.5 83t16.5 83t45.5 68t68 45.5t83 16.5zM363 235h-86v86h-42v-86h-86v-42h86v-86h42v86h86v42z" />
    <glyph glyph-name="uniE662" unicode="&#xe662;" 
d="M256 427q44 0 83 -16.5t68 -45.5t45.5 -68t16.5 -83t-16.5 -83t-45.5 -68t-68 -45.5t-83 -16.5t-83 16.5t-68 45.5t-45.5 68t-16.5 83t16.5 83t45.5 68t68 45.5t83 16.5zM286 214l77 77l-30 30l-77 -77l-77 77l-30 -30l77 -77l-77 -77l30 -30l77 77l77 -77l30 30z" />
    <glyph glyph-name="uniE663" unicode="&#xe663;" 
d="M509 294h-508v16v16h508v-16v-16zM509 172h-508v15.5v15.5h508v-15.5v-15.5zM509 52h-508v15.5v15.5h508v-15.5v-15.5z" />
    <glyph glyph-name="uniE664" unicode="&#xe664;" 
d="M62 302q-3 0 -4 1q-8 4 -4 11q28 58 81.5 91.5t117.5 34.5h3q8 0 8 -8t-8 -8h-2q-60 -1 -109.5 -32.5t-75.5 -84.5q-3 -5 -7 -5zM51 138q-5 0 -7 6q-12 34 -12 72q0 34 9 65q3 7 10 5q8 -2 6 -10q-9 -28 -9 -60t11 -67q2 -8 -5 -10l-1 -1h-2zM464 221q-1 76 -51.5 133
t-125.5 68q-8 0 -6 9q0 8 9 6q80 -12 134 -73t56 -143q0 -8 -8 -8t-8 8zM231 -8q-2 0 -3 1q-8 4 -4 11q10 23 13 32q3 7 10 5q9 -3 5 -11q-5 -17 -14 -33q-2 -5 -7 -5zM255 58h-2q-8 2 -6 10q9 37 9 76q0 34 -8 72q-2 7 6 9t10 -6q8 -38 8 -75q0 -43 -10 -80q0 -6 -7 -6z
M312 -2h-1q-1 1 -2 1q-7 2 -5 10q24 65 24 135q0 46 -10 86q-5 22 -22.5 36t-39.5 14q-14 0 -23 -4q-7 -4 -11 4q-2 8 5 11q15 5 29 5q28 0 50 -17.5t28 -45.5q10 -41 10 -89q0 -74 -25 -140q-1 -6 -7 -6zM399 45h-1q-7 1 -7 10q9 43 9 89q0 49 -11 101q-14 61 -68 91
q-8 4 -4 11q4 6 11 3q62 -33 76 -101q12 -51 12 -105q0 -46 -9 -93q-2 -6 -8 -6zM161 14q-2 0 -4 1q-7 3 -3 11q30 54 30 118q0 28 -6 53v1q-2 12 -2 18q0 32 21 54q5 6 11 0t1 -11q-17 -19 -17 -43q0 -9 1 -13l1 -1q6 -28 6 -58q0 -67 -32 -126q-1 -4 -7 -4zM102 56
q-3 0 -4 1q-7 3 -3 11q17 37 17 76q0 22 -4 39q-4 15 -4 33q0 63 44.5 107.5t107.5 44.5q19 0 39 -5q8 -2 6 -10t-10 -6q-18 5 -35 5q-56 0 -96 -40t-40 -96q0 -15 3 -30q5 -23 5 -42q0 -45 -19 -83q-2 -5 -7 -5z" />
    <glyph glyph-name="uniE665" unicode="&#xe665;" 
d="M368 336q14 0 23 -9t9 -23v-240q0 -14 -9 -23t-23 -9h-16v-24q0 -8 -8 -8t-8 8v24h-144v-24q0 -8 -8 -8t-8 8v24h-16q-14 0 -23 9t-9 23v240q0 14 9 23t23 9h96v96h-24q-8 0 -8 8t8 8h64q8 0 8 -8t-8 -8h-24v-96h96zM384 304q0 16 -16 16h-208q-16 0 -16 -16v-240
q0 -16 16 -16h208q16 0 16 16v240z" />
    <glyph glyph-name="uniE666" unicode="&#xe666;" 
d="M406 356q61 -61 61 -147t-61 -147t-147 -61t-147 61t-61 147t61 147t147 61t147 -61zM384 203l-127 128l-128 -128l23 -22l89 89v-194h32v194l89 -89z" />
    <glyph glyph-name="uniE667" unicode="&#xe667;" 
d="M360 306h-176q-8 0 -8 8t8 8h176q8 0 8 -8t-8 -8zM328 258h-112q-8 0 -8 8t8 8h112q8 0 8 -8t-8 -8zM400 434q14 0 23 -9t9 -23v-368q0 -14 -9 -23t-23 -9h-272q-14 0 -23 9t-9 23v32h-8q-8 0 -8 8t8 8h8v32h-8q-8 0 -8 8t8 8h8v32h-8q-8 0 -8 8t8 8h8v32h-8q-8 0 -8 8
t8 8h8v32h-8q-8 0 -8 8t8 8h8v32h-8q-8 0 -8 8t8 8h8v32h-8q-8 0 -8 8t8 8h8v32q0 14 9 23t23 9h272zM416 402q0 16 -16 16h-272q-16 0 -16 -16v-32h24q8 0 8 -8t-8 -8h-24v-32h24q8 0 8 -8t-8 -8h-24v-32h24q8 0 8 -8t-8 -8h-24v-32h24q8 0 8 -8t-8 -8h-24v-32h24q8 0 8 -8
t-8 -8h-24v-32h24q8 0 8 -8t-8 -8h-24v-32h24q8 0 8 -8t-8 -8h-24v-32q0 -16 16 -16h272q16 0 16 16v368z" />
    <glyph glyph-name="uniE669" unicode="&#xe669;" 
d="M440 72q8 0 8 -8t-8 -8h-368q-8 0 -8 8t8 8q16 0 28 12t12 28l8 105q5 73 37.5 120t82.5 54v25q0 8 8 8h16q8 0 8 -8v-25q50 -7 82.5 -53.5t37.5 -120.5l8 -104q0 -17 11.5 -29t28.5 -12zM401 72q-17 15 -17 40l-8 103q-5 73 -37.5 117t-82.5 44t-82.5 -44t-37.5 -117
l-8 -104q0 -24 -17 -39h290zM256 8q-25 0 -45 18q-5 5 0 12q5 6 11 0q14 -14 34 -14t34 14q6 6 11 0q5 -7 0 -12q-18 -18 -45 -18z" />
    <glyph glyph-name="uniE66A" unicode="&#xe66a;" 
d="M256 6q-25 0 -45 18q-5 5 0 12q5 6 11 0q14 -14 34 -14t34 14q6 6 11 0q5 -7 0 -12q-18 -18 -45 -18zM50 24q-6 6 0 12l352 352q6 6 12 0t0 -12l-352 -352q-4 -2 -6 -2t-6 2zM440 54h-305q-8 0 -8 8t8 8h266q-17 15 -17 40l-8 103q-3 42 -16 78q-4 8 4 10q7 4 11 -4
q14 -37 17 -82l8 -104q0 -17 11.5 -29t28.5 -12q8 0 8 -8t-8 -8zM338 356q6 -6 0 -12q-7 -5 -12 0q-28 30 -70 30q-50 0 -82.5 -44t-37.5 -117l-6 -72q0 -7 -8 -7t-8 9l6 72q5 73 37.5 120t82.5 54v25q0 8 8 8h16q8 0 8 -8v-25q38 -6 66 -33z" />
    <glyph glyph-name="uniE66C" unicode="&#xe66c;" 
d="M416 412q14 0 23 -9t9 -23v-320q0 -14 -9 -23t-23 -9h-320q-14 0 -23 9t-9 23v320q0 14 9 23t23 9h48v24q0 8 8 8t8 -8v-24h192v24q0 8 8 8t8 -8v-24h48zM96 396q-16 0 -16 -16v-64h352v64q0 16 -16 16h-48v-24q0 -8 -8 -8t-8 8v24h-192v-24q0 -8 -8 -8t-8 8v24h-48z
M416 44q16 0 16 16v240h-352v-240q0 -16 16 -16h320zM268 235q4 -2 4 -7v-112q0 -8 -8 -8t-8 8v97l-12 -8q-6 -4 -11 3q-4 6 3 11l24 16q3 2 8 0z" />
    <glyph glyph-name="uniE66D" unicode="&#xe66d;" 
d="M152 10q-2 0 -3 1q-5 2 -5 7v72h-80q-14 0 -23 9t-9 23v240q0 14 9 23t23 9h384q14 0 23 -9t9 -23v-240q0 -14 -9 -23t-23 -9h-205l-86 -78q-2 -2 -5 -2zM64 378q-16 0 -16 -16v-240q0 -16 16 -16h88q8 0 8 -8v-62l75 68q2 2 5 2h208q16 0 16 16v240q0 16 -16 16h-384z
" />
    <glyph glyph-name="uniE66E" unicode="&#xe66e;" 
d="M149 9q-5 2 -5 7v72h-80q-14 0 -23 9t-9 23v240q0 14 9 23t23 9h384q14 0 23 -9t9 -23v-240q0 -14 -9 -23t-23 -9h-213l-77 -78q-4 -2 -6 -2t-3 1zM64 376q-16 0 -16 -16v-240q0 -16 16 -16h88q8 0 8 -8v-61l66 67q4 2 6 2h216q16 0 16 16v240q0 16 -16 16h-384zM185 223
q-7 -7 -17 -7t-17 7t-7 17t7 17t17 7t17 -7t7 -17t-7 -17zM176 240q0 8 -8 8t-8 -8t8 -8t8 8zM281 223q-7 -7 -17 -7t-17 7t-7 17t7 17t17 7t17 -7t7 -17t-7 -17zM272 240q0 8 -8 8t-8 -8t8 -8t8 8zM377 223q-7 -7 -17 -7t-17 7t-7 17t7 17t17 7t17 -7t7 -17t-7 -17z
M368 240q0 8 -8 8t-8 -8t8 -8t8 8z" />
    <glyph glyph-name="uniE66F" unicode="&#xe66f;" 
d="M67 125q-3 3 -3 8l9 54q-41 38 -41 89q0 56 49 96t119 40t119 -40t49 -96t-49 -96t-119 -40q-38 0 -74 14l-50 -29q-1 -1 -4 -1t-5 1zM87 196q3 -3 2 -7l-6 -42l39 23q3 1 7 0q34 -14 71 -14q63 0 107.5 35t44.5 85t-44.5 85t-107.5 35t-107.5 -35t-44.5 -85
q0 -46 39 -80zM436 61l-50 29q-36 -14 -74 -14q-64 0 -110 34q-7 4 -2 11q4 6 11 2q43 -31 101 -31q37 0 71 14q4 1 7 0l39 -23l-6 42q-1 4 2 7q39 34 39 80q0 34 -23 63t-62 45q-8 2 -4 10q2 8 10 4q44 -16 69.5 -49t25.5 -73q0 -51 -41 -89l9 -54q0 -5 -3 -8q-2 -1 -5 -1
t-4 1z" />
    <glyph glyph-name="uniE670" unicode="&#xe670;" 
d="M392 34h-352q-8 0 -8 8v352q0 8 8 8h352q8 0 8 -8v-48q0 -8 -8 -8t-8 8v40h-336v-336h336v208q0 8 8 8t8 -8v-216q0 -8 -8 -8zM210 116l-80 80q-6 6 0 12t12 0l74 -75l250 251q6 6 12 0t0 -12l-256 -256q-4 -2 -6 -2t-6 2z" />
    <glyph glyph-name="uniE671" unicode="&#xe671;" 
d="M400 74q-63 -63 -152 -63t-152.5 63.5t-63.5 152.5t63.5 152.5t152.5 63.5t152.5 -63.5t63.5 -152.5t-64 -153zM389 368q-59 59 -141 59t-141 -59t-59 -141t59 -141t141 -59t141 59t59 141t-59 141zM250 326h16v-144h-112v16h96v128z" />
    <glyph glyph-name="uniE672" unicode="&#xe672;" 
d="M452 158q35 -26 26 -54q-6 -24 -38 -24h-384q-32 0 -38 24q-9 28 26 54q37 28 196 126v21q-20 3 -34 18.5t-14 36.5q0 23 16.5 39.5t39.5 16.5t39.5 -16.5t16.5 -39.5q0 -8 -8 -8t-8 8q0 16 -12 28t-28 12t-28 -12t-12 -28t12 -28t28 -12q8 0 8 -8v-28q159 -98 196 -126z
M463 109q6 17 -20 37q-12 8 -98.5 63t-96.5 62q-10 -7 -96.5 -62t-98.5 -63q-26 -20 -20 -37q3 -13 23 -13h384q20 0 23 13z" />
    <glyph glyph-name="uniE673" unicode="&#xe673;" 
d="M216 -16q-2 0 -3 1q-7 2 -5 8l31 183h-135q-5 0 -7 4q-3 4 1 9l208 272q4 6 9 2q5 -1 5 -8l-31 -183h119q5 0 7 -4q1 -4 0 -9l-192 -272q-3 -3 -7 -3z" />
    <glyph glyph-name="uniE674" unicode="&#xe674;" 
d="M58 153q-7 -1 -15.5 -0.5t-11.5 4.5l-4 5q-7 17 -8 45.5t7 50.5q13 17 34.5 26.5t41.5 15.5q61 17 130 18t131 -8q18 -3 38.5 -8.5t39 -13t32 -15.5t18.5 -17q3 -9 5 -21.5t2 -26t-2 -26.5t-8 -23l-8 -7q-6 -3 -11.5 -2.5t-12.5 1.5q-20 5 -41 9t-43 7q-15 4 -21 20
q-1 3 -2.5 10t-4 15t-5 14t-5.5 6q-39 6 -76 3t-75 -2q-5 -2 -6 -6q-2 -8 -5 -18.5t-7 -20.5q-5 -14 -22 -20q-21 -3 -42.5 -7.5t-42.5 -7.5z" />
    <glyph glyph-name="uniE675" unicode="&#xe675;" 
d="M319 278q-14 14 -31.5 21t-36.5 7t-36.5 -7t-31.5 -21t-21 -31.5t-7 -36.5t7 -36.5t21 -31.5t31.5 -21t36.5 -7t36.5 7t31.5 21t21 31.5t7 36.5t-7 36.5t-21 31.5zM294 167q-18 -18 -43 -18t-43 18t-18 43t18 43t43 18t43 -18t18 -43t-18 -43zM443 50h-384q-14 0 -23 9
t-9 23v224q0 14 9 23t23 9h64q9 0 14 8v1l22 38q8 17 28 17h128q18 0 28 -16v-1l1 -1l21 -37v-1q5 -8 14 -8h64q14 0 23 -9t9 -23v-224q0 -14 -9 -23t-23 -9z" />
    <glyph glyph-name="uniE676" unicode="&#xe676;" 
d="M277 244q-7 -7 -17 -7t-17 7t-7 17t7 17t17 7t17 -7t7 -17t-7 -17zM268 261q0 8 -8 8t-8 -8t8 -8t8 8zM252 21v176q0 8 8 8t8 -8v-176q0 -8 -8 -8t-8 8zM317 196q-5 0 -6 3q-5 6 0 11q21 21 21 51q0 28 -21 51q-5 5 0 11t11 0q26 -24 26 -62t-26 -62q-2 -3 -5 -3z
M204 196q-4 0 -5 2q-27 26 -27 63q0 38 26 62q6 6 11 0t0 -11q-21 -21 -21 -51t22 -52q6 -6 0 -11q-4 -2 -6 -2zM362 151q-3 0 -6 3q-6 5 0 11q40 40 40 96t-40 96q-6 6 0 11q6 7 11 0q45 -43 45 -107t-45 -107q-1 -3 -5 -3zM153 153q-45 45 -45 108q0 64 45 107q5 7 11 0
q6 -5 0 -11q-40 -40 -40 -96q0 -58 41 -97q5 -5 0 -11q-3 -3 -6 -3t-6 3zM114 109q-2 0 -6 2q-64 64 -64 150q0 85 63 150q5 5 12 0q6 -6 0 -12q-59 -57 -59 -138q0 -79 59 -138q5 -5 0 -12q-2 -2 -5 -2zM401 111q-6 6 0 12q59 57 59 138t-59 138q-6 6 0 12q7 5 12 0
q63 -65 63 -150t-63 -150q-4 -2 -6 -2t-6 2z" />
    <glyph glyph-name="uniE67B" unicode="&#xe67b;" 
d="M242 26l-175 177q-35 35 -35 85t35 85t85 35t85 -35l11 -10l11 10q35 35 85 35t85 -35t35 -85t-35 -85l-175 -177q-4 -2 -6 -2t-6 2zM152 392q-42 0 -74 -30q-30 -32 -30 -74t30 -74l170 -171l170 171q30 31 30 74t-30 74q-32 30 -74 30t-74 -30l-17 -16q-5 -5 -10 0
l-17 15q-31 31 -74 31z" />
    <glyph glyph-name="uniE67C" unicode="&#xe67c;" 
d="M392 104q-39 0 -73 34v1l-45 48q-6 6 1 11q6 6 11 -1l45 -48q29 -29 61 -29q38 0 63 27t25 69t-25 69t-63 27q-32 0 -61 -29v-1l-138 -143v-1q-34 -34 -73 -34q-44 0 -74 32t-30 80t30 80t74 32q39 0 73 -34v-1l45 -48q6 -6 -1 -11q-6 -6 -11 1l-45 48q-29 29 -61 29
q-38 0 -63 -27t-25 -69t25 -69t63 -27q32 0 61 29v1l138 143v1q34 34 73 34q44 0 74 -32t30 -80t-30 -80t-74 -32z" />
    <glyph glyph-name="uniE67D" unicode="&#xe67d;" 
d="M400 56q-63 -63 -152 -63t-152.5 63.5t-63.5 152.5t63.5 152.5t152.5 63.5t152.5 -63.5t63.5 -152.5t-64 -153zM389 350q-59 59 -141 59t-141 -59t-59 -141t59 -141t141 -59t141 59t59 141t-59 141zM227 329q8 9 19 9t19.5 -8.5t8.5 -19.5t-8.5 -19t-19.5 -8t-19 8t-8 19
t8 19zM270 235v-128q0 -10 -7 -17t-17 -7t-17 7t-7 17v128q0 10 7 17t17 7t17 -7t7 -17z" />
    <glyph glyph-name="uniE67E" unicode="&#xe67e;" 
d="M392 2q-25 0 -44.5 15.5t-25.5 39.5l-52 -53q-6 -6 -12 0l-224 224q-6 6 0 12l208 208q6 6 12 0l80 -80q4 -5 1 -9q-2 -5 -7 -5q-23 0 -39.5 -16.5t-16.5 -39.5t16.5 -39.5t39.5 -16.5t39.5 16.5t16.5 39.5q0 5 5 7q4 3 9 -1l80 -80q6 -6 0 -12l-69 -68q24 -6 39.5 -25.5
t15.5 -44.5q0 -30 -21 -51t-51 -21zM331 81q5 -2 5 -7q0 -23 16.5 -39.5t39.5 -16.5t39.5 16.5t16.5 39.5t-16.5 39.5t-39.5 16.5q-5 0 -7 5q-3 4 1 9l75 74l-63 63q-6 -24 -25.5 -39.5t-44.5 -15.5q-30 0 -51 21t-21 51q0 25 15.5 44.5t39.5 25.5l-63 63l-197 -197
l213 -213l58 59q4 2 6 2t3 -1z" />
    <glyph glyph-name="uniE67F" unicode="&#xe67f;" 
d="M456 315q23 -44 23 -97t-23 -97q7 -17 7 -31q0 -30 -21 -51t-51 -21q-14 0 -31 7q-44 -23 -97 -23t-97 23q-17 -7 -31 -7q-30 0 -51 21t-21 51q0 14 7 31q-23 44 -23 97t23 97q-7 17 -7 31q0 30 21 51t51 21q13 0 31 -7q44 23 97 23t97 -23q17 7 31 7q30 0 51 -21t21 -51
q0 -14 -7 -31zM443 132q20 40 20 86t-20 86l-71 -37q11 -24 11 -49t-11 -49zM363 45q44 25 73 73l-71 37q-15 -25 -40 -40zM90 118q29 -48 73 -73l38 70q-25 15 -40 40zM189 144q31 -30 74 -30t73.5 30.5t30.5 73.5t-30.5 73.5t-73.5 30.5t-73.5 -30.5t-30.5 -73.5t30 -74z
M163 391q-44 -25 -73 -73l71 -37q15 25 40 40zM436 318q-29 48 -73 73l-38 -70q25 -15 40 -40zM391 402q-2 0 -6.5 -0.5t-6.5 -0.5q41 -27 68 -68q0 2 0.5 6.5t0.5 6.5q0 23 -16.5 39.5t-39.5 16.5zM349 399q-41 19 -86 19t-86 -19l39 -71q23 10 47 10t47 -10zM79 346
q0 -2 0.5 -6.5t0.5 -6.5q27 41 68 68q-2 0 -6.5 0.5t-6.5 0.5q-23 0 -39.5 -16.5t-16.5 -39.5zM83 304q-20 -40 -20 -86t20 -86l71 37q-11 24 -11 49t11 49zM135 34q9 0 13 1q-41 27 -68 68q0 -2 -0.5 -6.5t-0.5 -6.5q0 -23 16.5 -39.5t39.5 -16.5zM177 37q41 -19 86 -19
t86 19l-39 71q-23 -10 -47 -10t-47 10zM447 90q0 9 -1 13q-27 -41 -68 -68q2 0 6.5 -0.5t6.5 -0.5q23 0 39.5 16.5t16.5 39.5z" />
    <glyph glyph-name="uniE680" unicode="&#xe680;" 
d="M216 24q-6 0 -8 6q-2 8 6 10l80 16q8 2 10 -6t-6 -10l-80 -16h-2zM216 56q-6 0 -8 6q-2 8 6 10l80 16q8 2 10 -6t-6 -10l-80 -16h-2zM224 -6q-6 0 -8 6q-2 9 6 9l64 13q8 2 10 -6q2 -9 -6 -9l-64 -13h-2zM296 88h-80q-22 0 -25 24q-3 23 -14.5 45.5t-20.5 33.5t-10 11
q-34 42 -34 94q0 59 42.5 101.5t101.5 42.5t101.5 -42.5t42.5 -101.5q0 -53 -34 -93q-38 -38 -45 -91q0 -8 -6.5 -16t-18.5 -8zM128 296q0 -47 30 -83q41 -41 49 -99q0 -10 9 -10h80q9 0 9 10q2 12 5.5 23.5t7.5 21t9 18t10 15t8.5 11.5t6.5 8l2 3q30 35 30 82
q0 53 -37.5 90.5t-90.5 37.5t-90.5 -37.5t-37.5 -90.5z" />
    <glyph glyph-name="uniE681" unicode="&#xe681;" 
d="M216 -15q-2 0 -3 1q-7 2 -5 8l31 183h-135q-5 0 -7 4q-3 4 1 9l208 272q4 6 9 2q5 -1 5 -8l-31 -183h119q5 0 7 -4q1 -4 0 -9l-192 -272q-3 -3 -7 -3zM120 193h128q4 0 6 -3q2 -2 2 -6l-26 -158l163 231h-113q-4 0 -6 3q-2 2 -2 6l27 161z" />
    <glyph glyph-name="uniE682" unicode="&#xe682;" 
d="M472 360h-56v8q0 8 -8 8h-16q-8 0 -8 -8v-8h-256v8q0 8 -8 8h-16q-8 0 -8 -8v-8h-56q-8 0 -8 -8v-336q0 -8 8 -8h432q8 0 8 8v336q0 8 -8 8zM464 24h-416v320h416v-320zM304 376q0 16 -16 16h-64q-16 0 -16 -16q0 -8 -8 -8t-8 8q0 14 9 23t23 9h64q14 0 23 -9t9 -23
q0 -8 -8 -8t-8 8zM280 72h-48q-8 0 -8 8v72h-72q-8 0 -8 8v48q0 8 8 8h72v72q0 8 8 8h48q8 0 8 -8v-72h72q8 0 8 -8v-48q0 -8 -8 -8h-72v-72q0 -8 -8 -8zM240 88h32v72q0 8 8 8h72v32h-72q-8 0 -8 8v72h-32v-72q0 -8 -8 -8h-72v-32h72q8 0 8 -8v-72z" />
    <glyph glyph-name="uniE683" unicode="&#xe683;" 
d="M143 318q-16 -16 -39 -16t-39.5 16.5t-16.5 39.5t16.5 39.5t39.5 16.5t39.5 -16.5t16.5 -39.5t-17 -40zM287 318q-16 -16 -39 -16t-39.5 16.5t-16.5 39.5t16.5 39.5t39.5 16.5t39.5 -16.5t16.5 -39.5t-17 -40zM431 318q-16 -16 -39 -16t-39.5 16.5t-16.5 39.5t16.5 39.5
t39.5 16.5t39.5 -16.5t16.5 -39.5t-17 -40zM143 174q-16 -16 -39 -16t-39.5 16.5t-16.5 39.5t16.5 39.5t39.5 16.5t39.5 -16.5t16.5 -39.5t-17 -40zM287 174q-16 -16 -39 -16t-39.5 16.5t-16.5 39.5t16.5 39.5t39.5 16.5t39.5 -16.5t16.5 -39.5t-17 -40zM431 174
q-16 -16 -39 -16t-39.5 16.5t-16.5 39.5t16.5 39.5t39.5 16.5t39.5 -16.5t16.5 -39.5t-17 -40zM143 30q-16 -16 -39 -16t-39.5 16.5t-16.5 39.5t16.5 39.5t39.5 16.5t39.5 -16.5t16.5 -39.5t-17 -40zM287 30q-16 -16 -39 -16t-39.5 16.5t-16.5 39.5t16.5 39.5t39.5 16.5
t39.5 -16.5t16.5 -39.5t-17 -40zM431 30q-16 -16 -39 -16t-39.5 16.5t-16.5 39.5t16.5 39.5t39.5 16.5t39.5 -16.5t16.5 -39.5t-17 -40z" />
    <glyph glyph-name="uniE684" unicode="&#xe684;" 
d="M508 281q4 -2 4 -7t-4 -7l-88 -48q12 -32 12 -65v-32q0 -8 -8 -8q-52 0 -95.5 -25t-65.5 -67q-2 -4 -7 -4h-1q-4 0 -6 5q-32 61 -105 83v-80q0 -8 -8 -8t-8 8v84q-17 4 -40 4q-8 0 -8 8v32q0 33 12 65l-88 48q-4 2 -4 7t4 7l248 136q4 1 8 0zM96 130q22 -2 32 -4v73
l-21 12q-11 -28 -11 -57v-24zM416 154q0 29 -11 57l-145 -80q-1 -1 -4 -1t-4 1l-108 59v-68q73 -19 112 -80q25 39 67.5 62.5t92.5 25.5v24zM487 274l-231 127l-231 -127l112 -62l115 69q8 4 11 -3q4 -8 -3 -11l-106 -64l102 -56z" />
    <glyph glyph-name="uniE685" unicode="&#xe685;" 
d="M432 366q14 0 23 -9t9 -23v-64q0 -14 -9 -23t-23 -9h-144q-16 0 -16 -16v-80h8q8 0 8 -8v-128q0 -10 -7 -17t-17 -7t-17 7t-7 17v128q0 8 8 8h8v80q0 14 9 23t23 9h144q16 0 16 16v64q0 16 -16 16v-32q0 -14 -9 -23t-23 -9h-304q-14 0 -23 9t-9 23v16h-8q-8 0 -8 8v32
q0 8 8 8h8v16q0 14 9 23t23 9h304q14 0 23 -9t9 -23v-32zM416 398q0 16 -16 16h-304q-16 0 -16 -16v-80q0 -16 16 -16h304q16 0 16 16v80zM272 126h-16v-120q0 -8 8 -8t8 8v120z" />
    <glyph glyph-name="uniE686" unicode="&#xe686;" 
d="M96 295q0 66 47 113t113 47t113 -47t47 -113v-72q0 -8 -8 -8t-8 8v8h-16v-232q0 -8 -8 -8h-240q-8 0 -8 8v232h-16v-8q0 -8 -8 -8t-8 8v72zM368 231h-224v-224h224v224zM368 263h-224v-16h224v16zM400 247v48q0 59 -42.5 101.5t-101.5 42.5t-101.5 -42.5t-42.5 -101.5
v-48h16v24q0 8 8 8h240q8 0 8 -8v-24h16z" />
    <glyph glyph-name="uniE687" unicode="&#xe687;" 
d="M74 45q-26 24 -26 62t26 62l251 245q21 21 51 21t51 -21t21 -51q0 -28 -21 -51l-188 -181q-16 -16 -39 -16q-22 0 -40 16q-16 18 -16 40t16 40l130 126q7 5 12 0q5 -7 0 -12l-130 -126q-12 -10 -12 -28t12 -28q10 -12 28 -12t28 12l188 180q16 18 16 40t-16 40
q-18 16 -40 16t-40 -16l-251 -245q-21 -21 -21 -51t21 -51t51 -21q28 0 51 21l199 193q7 5 12 0q5 -7 0 -12l-200 -192q-24 -26 -62 -26t-62 26z" />
    <glyph glyph-name="uniE688" unicode="&#xe688;" 
d="M160 74v320q0 30 21 51t51 21t51 -21t21 -51v-256q0 -23 -16.5 -39.5t-39.5 -16.5t-39.5 16.5t-16.5 39.5v176q0 8 8 8t8 -8v-176q0 -16 12 -28t28 -12t28 12t12 28v256q0 23 -16.5 39.5t-39.5 16.5t-39.5 -16.5t-16.5 -39.5v-320q0 -30 21 -51t51 -21t51 21t21 51v256
q0 8 8 8t8 -8v-256q0 -37 -25.5 -62.5t-62.5 -25.5t-62.5 25.5t-25.5 62.5z" />
    <glyph glyph-name="uniE689" unicode="&#xe689;" 
d="M80 264q0 82 59 141t141 59t141 -59t59 -141t-59 -141t-141 -59q-8 0 -8 8t8 8q76 0 130 54t54 130t-54 130t-130 54t-130 -54t-54 -130v-13l50 51q6 6 12 0t0 -12l-64 -64q-2 -1 -3 -1q-1 -1 -3 -1t-3 1q-1 0 -2 1h-1l-64 64q-6 6 0 12t12 0l50 -51v13zM376 256h-96
q-8 0 -8 8v128q0 8 8 8t8 -8v-120h88q8 0 8 -8t-8 -8z" />
    <glyph glyph-name="uniE68B" unicode="&#xe68b;" 
d="M428 133q7 -3 3 -11q-4 -4 -7 -4h-2l-2 1l-68 40v-51q0 -8 -8 -8t-8 8v60l-80 46v-93l52 -30q7 -3 3 -11q-3 -4 -7 -4q-3 0 -4 1l-44 25v-82q0 -8 -8 -8t-8 8v82l-44 -25q-1 -1 -4 -1q-4 0 -7 4q-4 8 3 11l52 30v93l-80 -46v-68q0 -8 -8 -8t-8 8v59l-68 -40l-2 -1h-2
q-3 0 -7 4q-4 8 3 11l67 39l-43 25q-7 3 -3 11q3 7 11 3l51 -30l81 47l-81 46l-51 -29q-1 -1 -4 -1q-4 0 -7 4q-4 8 3 11l43 25l-67 39q-7 3 -3 11q4 6 11 3l68 -40v59q0 8 8 8t8 -8v-68l80 -46v93l-52 30q-7 3 -3 11q3 7 11 3l44 -25v82q0 8 8 8t8 -8v-82l44 25q8 4 11 -3
q4 -8 -3 -11l-52 -30v-93l80 46v68q0 8 8 8t8 -8v-59l68 40q7 3 11 -3q4 -8 -3 -11l-67 -39l43 -25q7 -3 3 -11q-3 -4 -7 -4q-3 0 -4 1l-51 29l-81 -46l81 -46l51 29q8 4 11 -3q4 -8 -3 -11l-43 -25z" />
    <glyph glyph-name="uniE68C" unicode="&#xe68c;" 
d="M470 200q0 -87 -60 -150v0q-1 0 -2 -1h-1q-1 -1 -3 -1t-3 1h-1l-1 1h-1l-27 27q-5 7 0 12q6 6 12 0l21 -21q47 53 50 124h-24q-8 0 -8 8t8 8h24q-3 73 -53 128l-21 -22q-4 -2 -6 -2t-6 2q-6 6 0 12l22 21q-55 50 -128 53v-24q0 -8 -8 -8t-8 8v24q-73 -3 -128 -53l22 -21
q6 -6 0 -12q-4 -2 -6 -2t-6 2l-21 22q-50 -55 -53 -128h24q8 0 8 -8t-8 -8h-24q3 -71 51 -125l22 22q5 5 11 0q5 -5 0 -12l-27 -27q-4 -2 -6 -2q-3 0 -7 2q-60 63 -60 150q0 89 63 152v1h1q63 63 152 63t152 -63h1v-1q63 -63 63 -152zM246 240q14 0 23 -9t9 -23t-9 -23
t-23 -9t-23 9t-9 23q0 8 5 16l-67 66q-6 6 0 12t12 0l66 -67q8 5 16 5zM230 208q0 -16 16 -16t16 16t-16 16q-6 0 -11 -5v0q-5 -5 -5 -11z" />
    <glyph glyph-name="uniE68D" unicode="&#xe68d;" 
d="M56 252h-32q-8 0 -8 8t8 8h32q8 0 8 -8t-8 -8zM176 388v32q0 8 8 8t8 -8v-32q0 -8 -8 -8t-8 8zM82 350l-16 16q-6 6 0 12t12 0l16 -16q6 -6 0 -12q-4 -2 -6 -2t-6 2zM274 350q-6 6 0 12l16 16q6 6 12 0t0 -12l-16 -16q-4 -2 -6 -2t-6 2zM66 142q-6 6 0 12l16 16q6 6 12 0
t0 -12l-16 -16q-4 -2 -6 -2t-6 2zM400 236h-7q-13 32 -41.5 52t-63.5 20q-8 0 -11 -1q-13 26 -38.5 41.5t-54.5 15.5q-43 0 -73.5 -30.5t-30.5 -73.5q0 -32 18 -58.5t48 -38.5q-18 -20 -18 -47q0 -30 21 -51t51 -21h200q40 0 68 28t28 68t-28 68t-68 28zM96 260
q0 37 25.5 62.5t62.5 25.5q50 0 76 -44q-36 -9 -60 -39t-24 -69q0 -8 1 -12q-5 -1 -18 -8q-28 7 -45.5 31t-17.5 53zM400 60h-200q-23 0 -39.5 16.5t-16.5 39.5q0 19 12 34.5t31 20.5q8 2 6 9q-1 5 -1 16q0 40 28 68t68 28q31 0 56.5 -18.5t35.5 -48.5q2 -8 9 -6q4 1 11 1
q33 0 56.5 -23.5t23.5 -56.5t-23.5 -56.5t-56.5 -23.5z" />
    <glyph glyph-name="uniE68E" unicode="&#xe68e;" 
d="M256 434q86 -3 147 -66t61 -150q0 -8 -8 -8h-200v-160q0 -20 -14 -34t-34 -14t-34 14t-14 34q0 8 8 8t8 -8q0 -14 9 -23t23 -9t23 9t9 23v160h-200q-8 0 -8 8q0 87 61 150t147 66v8q0 8 8 8t8 -8v-8zM448 226q-3 80 -61 136t-139 56t-139 -56t-61 -136h400z" />
    <glyph glyph-name="uniE690" unicode="&#xe690;" 
d="M78 37q-4 4 -4 11l12 70q-54 50 -54 116q0 74 64 126t155.5 52t155.5 -52t64 -125.5t-64 -125.5t-156 -52q-49 0 -96 18l-66 -38q-1 -1 -5 -1t-6 1zM104 130q4 -4 2 -9l-7 -55l50 30q4 1 10 0q44 -18 92 -18q83 0 141 45.5t58 111t-58 111t-140.5 45.5t-140.5 -45.5
t-58 -111.5q0 -60 51 -104z" />
    <glyph glyph-name="uniE691" unicode="&#xe691;" 
d="M264 -6h-2q-6 2 -6 8v216h-216q-6 0 -8 6q-2 7 5 9l416 192q4 3 9 -1q4 -5 1 -9l-192 -416q-2 -5 -7 -5zM76 234h188q8 0 8 -8v-188l168 364z" />
    <glyph glyph-name="uniE692" unicode="&#xe692;" 
d="M264 -8h-2q-6 2 -6 8v216h-216q-6 0 -8 6q-2 7 5 9l416 192q4 3 9 -1q4 -5 1 -9l-192 -416q-2 -5 -7 -5z" />
    <glyph glyph-name="uniE693" unicode="&#xe693;" 
d="M240 312v160q0 8 8 8t8 -8v-160q0 -8 -8 -8t-8 8zM64 216q0 62 37.5 111.5t96.5 65.5q8 2 10 -6q2 -7 -6 -9q-54 -16 -88 -61t-34 -101q0 -70 49 -119t119 -49t119 49t49 119q0 56 -34 101t-88 61q-8 2 -6 9q3 8 10 6q59 -16 96.5 -65.5t37.5 -111.5q0 -76 -54 -130
t-130 -54t-130 54t-54 130z" />
    <glyph glyph-name="uniE694" unicode="&#xe694;" 
d="M400 410q11 0 19.5 -7.5t8.5 -18.5v-316q0 -11 -8.5 -18.5t-19.5 -7.5h-314q-11 0 -19 7.5t-8 18.5v316q0 11 8 18.5t19 7.5h314zM387 355q1 3 0 6q-4 3 -6 1l-284 -131q-5 -2 -3 -6q1 -4 5 -4h147v-147q0 -4 5 -6h1q4 0 5 4z" />
    <glyph glyph-name="uniE695" unicode="&#xe695;" 
d="M312 277v53h-109v-264h-42v285q0 10 5.5 16t15.5 6h130v53l74 -75z" />
    <glyph glyph-name="uniE696" unicode="&#xe696;" 
d="M410 309q-51 -29 -46 -86t58 -77q-12 -25 -27 -49q-39 -60 -71 -60q-12 0 -32 9t-39 9t-38.5 -9t-31.5 -9q-34 0 -71 56q-35 54 -40.5 113.5t17.5 92.5q33 52 86 52q17 0 41.5 -9t36.5 -9t35 9t43 9q45 0 79 -42zM303 380q-26 -34 -63 -32q-5 33 21 65q26 31 62 34
q5 -34 -20 -67z" />
    <glyph glyph-name="uniE697" unicode="&#xe697;" 
d="M418 407q8 0 14.5 -6t6.5 -14v-328q0 -8 -6.5 -14t-14.5 -6h-94v142h48l7 56h-55v36q0 27 28 27h29v49q-15 3 -43 3q-32 0 -51.5 -19.5t-19.5 -54.5v-41h-48v-56h48v-142h-177q-8 0 -14 6t-6 14v328q0 8 6 14t14 6h328z" />
    <glyph glyph-name="uniE698" unicode="&#xe698;" 
d="M455 354q-19 -27 -40 -42v-10q0 -88 -62.5 -159t-167.5 -71q-68 0 -124 36q6 -1 19 -1q56 0 101 35q-26 1 -47 16.5t-29 39.5q10 -2 15 -2q11 0 22 3q-28 5 -46.5 27.5t-18.5 51.5v2q20 -11 36 -11q-35 24 -35 68q0 23 10 40q65 -79 167 -84q-2 12 -2 18q0 34 23.5 57.5
t57.5 23.5q36 0 59 -25q28 6 51 19q-9 -29 -35 -44q23 3 46 12z" />
    <glyph glyph-name="uniE699" unicode="&#xe699;" 
d="M411 418q11 0 19.5 -7.5t8.5 -18.5v-316q0 -11 -8.5 -18.5t-19.5 -7.5h-314q-11 0 -19 7.5t-8 18.5v316q0 11 8 18.5t19 7.5h314zM179 104v176h-54v-176h54zM152 304q13 0 22.5 9.5t9.5 22.5t-9.5 22.5t-22.5 9.5t-22.5 -9.5t-9.5 -22.5q0 -14 9 -23t23 -9zM384 104v97
q0 40 -13.5 61.5t-51.5 21.5t-52 -28h-1v24h-52v-176h54v87q0 45 33 45q13 0 19.5 -8.5t7.5 -16t1 -21.5v-86h55z" />
    <glyph glyph-name="uniE69A" unicode="&#xe69a;" 
d="M87 204q-12 9 -22 26q-17 31 -17 62q0 24 12 42q15 18 37 18q15 0 30 -10q14 -11 21 -26q17 -34 17 -67q0 -11 -1 -18q-2 -12 -9 -22q-15 -15 -37 -16q-17 0 -31 11zM121 120q-16 0 -49 -5q-22 -4 -42 -13v99q23 -23 62 -23q12 0 18 1l-3 -9q-2 -6 -2 -13q0 -13 5 -21
q3 -6 11 -16zM136 104q27 -18 46 -37q14 -16 14 -37v-1h-140q-10 0 -18 7.5t-8 18.5v15q6 8 9 11q9 7 16 10q2 1 6 2.5t6 2.5q4 1 35 7q12 1 22 1h12zM373 395q11 0 18.5 -7.5t7.5 -18.5v-28v-286q0 -11 -7.5 -18.5t-18.5 -7.5h-145q3 11 3 23q0 26 -13 46q-14 19 -30 32
l-19 15q-6 6 -9 10q-5 7 -5 14q0 8 5 16l9 12q1 1 7.5 6t9.5 8q7 7 13 16q13 19 13 48q0 13 -4 29q-5 14 -10 21q-8 12 -12 16q-3 3 -12 9h34l35 20h-111q-20 0 -48 -5q-26 -6 -49 -25q-1 -1 -2.5 -3t-2.5 -3v7v28q0 11 8 18.5t18 7.5h65h93h93h66zM393 281v29h-58v58h-28
v-58h-59v-29h59v-58h28v58h58z" />
    <glyph glyph-name="uniE69B" unicode="&#xe69b;" 
d="M400 85q-63 -63 -152 -63t-152.5 63.5t-63.5 152.5t63.5 152.5t152.5 63.5t152.5 -63.5t63.5 -152.5t-64 -153zM389 379q-59 59 -141 59t-141 -59t-59 -141t59 -141t141 -59t141 59t59 141t-59 141zM355 130q-44 -44 -107 -44t-107.5 44.5t-44.5 107.5t44.5 107.5
t107.5 44.5t107.5 -44.5t44.5 -107.5t-45 -108zM344 334q-40 40 -96 40t-96 -40t-40 -96t40 -96t96 -40t96 40t40 96t-40 96zM310 175q-25 -25 -62 -25t-62.5 25.5t-25.5 62.5t25.5 62.5t62.5 25.5t62.5 -25.5t25.5 -62.5t-26 -63zM299 289q-21 21 -51 21t-51 -21t-21 -51
t21 -51t51 -21t51 21t21 51t-21 51zM265 221q-7 -7 -17 -7t-17 7t-7 17t7 17t17 7t17 -7t7 -17t-7 -17zM256 238q0 8 -8 8t-8 -8t8 -8t8 8z" />
    <glyph glyph-name="uniE69C" unicode="&#xe69c;" 
d="M252 12l-101 222q-12 25 -12 53q0 50 35 85t85 35t85 -35t35 -85q0 -28 -12 -53l-101 -222q-2 -5 -7 -5t-7 5zM155 287q0 -24 11 -46l93 -207l93 207q11 22 11 46q0 43 -30.5 73.5t-73.5 30.5t-73.5 -30.5t-30.5 -73.5zM298 247q-16 -16 -39 -16t-39.5 16.5t-16.5 39.5
t16.5 39.5t39.5 16.5t39.5 -16.5t16.5 -39.5t-17 -40zM287 315q-12 12 -28 12t-28 -12t-12 -28t12 -28t28 -12t28 12t12 28t-12 28zM402 299q-6 0 -7 4q-4 8 3 11q13 7 13 21q0 10 -7 17t-17 7q-4 0 -6 -1q-7 -2 -9 6t5 10q4 1 10 1q16 0 28 -12t12 -28q0 -25 -22 -36h-3z
M380 92l-30 67q-4 7 4 11q7 4 11 -4l22 -51l83 191q5 15 5 29q0 37 -25.5 62.5t-62.5 25.5q-29 0 -52 -17q-7 -5 -11 2q-5 5 1 11q28 20 62 20q43 0 73.5 -30.5t30.5 -73.5q0 -18 -6 -35l-91 -208q-2 -5 -7 -5t-7 5zM116 299h-3q-22 11 -22 36q0 16 12 28t28 12q6 0 10 -1
q7 -2 5 -10t-9 -6q-2 1 -6 1q-10 0 -17 -7t-7 -17q0 -14 13 -21q7 -3 3 -11q-1 -4 -7 -4zM124 92l-91 208q-6 17 -6 35q0 43 30.5 73.5t73.5 30.5q34 0 62 -20q6 -6 1 -11q-4 -7 -11 -2q-23 17 -52 17q-37 0 -62.5 -25.5t-25.5 -62.5q0 -14 5 -29l83 -191l22 51q4 8 11 4
q6 -3 4 -11l-30 -67q-2 -5 -7 -5t-7 5z" />
    <glyph glyph-name="uniE69D" unicode="&#xe69d;" 
d="M256 330q0 43 30.5 73.5t73.5 30.5t73.5 -30.5t30.5 -73.5t-30.5 -73.5t-73.5 -30.5q-38 0 -68 25l-230 -231q-4 -2 -6 -2t-6 2q-6 6 0 12l231 230q-25 32 -25 68zM360 242q37 0 62.5 25.5t25.5 62.5t-25.5 62.5t-62.5 25.5t-62.5 -25.5t-25.5 -62.5q0 -36 26 -62v0
q26 -26 62 -26zM288 330q0 30 21 51t51 21q8 0 8 -8t-8 -8q-23 0 -39.5 -16.5t-16.5 -39.5q0 -8 -8 -8t-8 8z" />
    <glyph glyph-name="uniE69E" unicode="&#xe69e;" 
d="M478 289q5 -7 0 -12q-18 -16 -44 -16q-15 0 -34 7l-95 -95q40 -74 2 -112q-2 -2 -6 -2q-3 0 -5 2l-97 97l-153 -154q-4 -2 -6 -2t-6 2q-6 6 0 12l154 153l-97 97q-5 6 0 11q17 17 46 17q32 0 66 -19l95 95q-19 50 9 78q5 6 11 0zM387 277l-80 80l-91 -91l80 -80zM301 79
q21 33 -12 91l-89 89q-60 33 -91 12l96 -96v0zM403 284q34 -15 57 0l-146 146q-15 -23 0 -57z" />
    <glyph glyph-name="uniE69F" unicode="&#xe69f;" 
d="M477 106q0 -5 -4 -7l-208 -112h-1q-1 -1 -3 -1t-3 1h-1l-208 112q-4 2 -4 7v240v1q0 1 1 2v1l2 2l1 1l208 112q4 1 8 0l208 -112l1 -1l2 -2v-1l1 -2v-1v-240zM70 346l191 -103l191 103l-191 103zM61 111l192 -104v222l-192 104v-222zM461 111v222l-192 -104v-222z" />
    <glyph glyph-name="uniE6A0" unicode="&#xe6a0;" 
d="M470 107q0 -5 -4 -7l-208 -112h-1q-1 -1 -3 -1t-3 1h-1l-208 112q-4 2 -4 7v240v1q0 1 1 2v1l2 2l1 1l208 112q4 1 8 0l208 -112l1 -1l2 -2v-1l1 -2v-1v-240zM171 405l191 -103l83 45l-191 103zM345 293l-191 103l-91 -49l191 -103zM54 112l192 -104v222l-192 104v-222z
M454 112v222l-192 -104v-222z" />
    <glyph glyph-name="uniE6A1" unicode="&#xe6a1;" 
d="M492 275q4 -2 4 -7t-4 -7l-76 -40v-113q0 -5 -4 -7l-160 -88h-1q-1 -1 -3 -1t-3 1h-1l-160 88q-4 2 -4 7v113l-76 40q-4 2 -4 7t4 7l61 33l-61 33q-4 2 -4 7t4 7l168 88q4 1 8 0l68 -37l68 37q4 1 8 0l168 -88q4 -2 4 -7t-4 -7l-61 -33zM265 397l149 -80l57 31l-151 79z
M397 308l-149 80l-149 -80l149 -80v0zM82 317l149 80l-55 30l-151 -79zM25 268l151 -79l55 30l-149 80zM96 113l144 -79v171l-60 -32q-1 -1 -4 -1t-4 1l-76 40v-100zM400 213l-76 -40q-1 -1 -4 -1t-4 1l-60 32v-171l144 79v100zM471 268l-57 31l-149 -80l55 -30z" />
    <glyph glyph-name="uniE6A2" unicode="&#xe6a2;" 
d="M400 65q-63 -63 -152 -63t-152.5 63.5t-63.5 152.5t63.5 152.5t152.5 63.5t152.5 -63.5t63.5 -152.5t-64 -153zM389 359q-59 59 -141 59t-141 -59t-59 -141t59 -141t141 -59t141 59t59 141t-59 141zM312 130h-108q4 10 4 16v64h56q8 0 8 8t-8 8h-56v48q0 20 14 34t34 14
t34 -14t14 -34q0 -8 8 -8t8 8q0 26 -19 45t-45 19t-45 -19t-19 -45v-48h-24q-8 0 -8 -8t8 -8h24v-64q0 -16 -16 -16q-8 0 -8 -8t8 -8h136q8 0 8 8t-8 8z" />
    <glyph glyph-name="uniE6A3" unicode="&#xe6a3;" 
d="M252 226v95q20 -2 34 -15.5t14 -31.5q0 -8 8 -8t8 8q0 25 -18.5 43t-45.5 21v24q0 8 -8 8t-8 -8v-24q-27 -3 -45.5 -21t-18.5 -43t18.5 -43t45.5 -21v-95q-20 2 -34 15.5t-14 31.5q0 8 -8 8t-8 -8q0 -25 18.5 -43t45.5 -21v-24q0 -8 8 -8t8 8v24q27 3 45.5 21t18.5 43
t-18.5 43t-45.5 21zM236 321v-94q-20 2 -34 15.5t-14 31.5t14 31.5t34 15.5zM252 115v94q20 -2 34 -15.5t14 -31.5t-14 -31.5t-34 -15.5zM396 65q-63 -63 -152 -63t-152.5 63.5t-63.5 152.5t63.5 152.5t152.5 63.5t152.5 -63.5t63.5 -152.5t-64 -153zM385 359
q-59 59 -141 59t-141 -59t-59 -141t59 -141t141 -59t141 59t59 141t-59 141z" />
    <glyph glyph-name="uniE6A4" unicode="&#xe6a4;" 
d="M400 66q-63 -63 -152 -63t-152.5 63.5t-63.5 152.5t63.5 152.5t152.5 63.5t152.5 -63.5t63.5 -152.5t-64 -153zM389 360q-59 59 -141 59t-141 -59t-59 -141t59 -141t141 -59t141 59t59 141t-59 141zM319 145q-32 -30 -71 -30q-35 0 -62.5 22.5t-37.5 57.5h100q8 0 8 8
t-8 8h-103q-1 5 -1 16t1 16h103q8 0 8 8t-8 8h-100q10 35 37.5 57.5t62.5 22.5q39 0 71 -30q5 -6 11 0t0 12q-34 34 -82 34q-42 0 -74 -27t-42 -69h-12q-8 0 -8 -8t8 -8h9q-1 -5 -1 -16t1 -16h-9q-8 0 -8 -8t8 -8h12q10 -42 42 -69t74 -27q48 0 82 34q5 5 0 12q-6 6 -11 0z
" />
    <glyph glyph-name="uniE6A5" unicode="&#xe6a5;" 
d="M410 65q-63 -63 -152 -63t-152.5 63.5t-63.5 152.5t63.5 152.5t152.5 63.5t152.5 -63.5t63.5 -152.5t-64 -153zM399 359q-59 59 -141 59t-141 -59t-59 -141t59 -141t141 -59t141 59t59 141t-59 141zM343 353q-7 3 -12 -2l-73 -103l-73 103q-5 5 -12 2q-5 -5 -2 -12
l71 -99h-48q-8 0 -8 -8t8 -8h56v-32h-56q-8 0 -8 -8t8 -8h56v-88q0 -8 8 -8t8 8v88h56q8 0 8 8t-8 8h-56v32h56q8 0 8 8t-8 8h-48l70 99q5 6 -1 12z" />
    <glyph glyph-name="uniE6A6" unicode="&#xe6a6;" 
d="M404 65q-63 -63 -152 -63t-152.5 63.5t-63.5 152.5t63.5 152.5t152.5 63.5t152.5 -63.5t63.5 -152.5t-64 -153zM393 359q-59 59 -141 59t-141 -59t-59 -141t59 -141t141 -59t141 59t59 141t-59 141zM332 290h-20q-8 20 -23 32h43q8 0 8 8t-8 8h-160q-8 0 -8 -8t8 -8h72
q36 0 51 -32h-123q-8 0 -8 -8t8 -8h127q1 -3 1 -8q0 -23 -16.5 -39.5t-39.5 -16.5h-72q-5 0 -7 -5q-3 -4 1 -9l128 -128q4 -2 6 -2t6 2q6 6 0 12l-115 114h53q30 0 51 21t21 51v8h16q8 0 8 8t-8 8z" />
    <glyph glyph-name="uniE6A7" unicode="&#xe6a7;" 
d="M408 289q8 0 8 -8v-248q0 -14 -9 -23t-23 -9h-272q-14 0 -23 9t-9 23v248q0 8 8 8h40v40q0 50 35 85t85 35t85 -35t35 -85v-40h40zM144 289h208v40q0 43 -30.5 73.5t-73.5 30.5t-73.5 -30.5t-30.5 -73.5v-40zM400 273h-304v-240q0 -16 16 -16h272q16 0 16 16v240z
M272 169q0 -16 -16 -23v-57q0 -8 -8 -8t-8 8v57q-16 7 -16 23q0 10 7 17t17 7t17 -7t7 -17zM256 169q0 8 -8 8t-8 -8t8 -8t8 8z" />
    <glyph glyph-name="uniE6A8" unicode="&#xe6a8;" 
d="M272 167q0 -16 -16 -23v-57q0 -8 -8 -8t-8 8v57q-16 7 -16 23q0 10 7 17t17 7t17 -7t7 -17zM256 167q0 8 -8 8t-8 -8t8 -8t8 8zM408 287q8 0 8 -8v-248q0 -14 -9 -23t-23 -9h-272q-14 0 -23 9t-9 23v248q0 8 8 8h40v40q0 50 35 85t85 35q44 0 78 -29.5t41 -73.5
q0 -7 -7 -9t-9 7q-5 38 -35 63.5t-68 25.5q-43 0 -73.5 -30.5t-30.5 -73.5v-40h264zM400 271h-304v-240q0 -16 16 -16h272q16 0 16 16v240z" />
    <glyph glyph-name="uniE6A9" unicode="&#xe6a9;" 
d="M234 402q8 0 8 -8v-184h184q8 0 8 -8q0 -82 -59 -141t-141 -59t-141 59t-59 141t59 141t141 59zM226 386q-74 -3 -125 -56.5t-51 -127.5q0 -76 54 -130t130 -54q74 0 127.5 51t56.5 125h-184q-8 0 -8 8v184zM458 226h-192q-8 0 -8 8v192q0 8 8 8q82 0 140.5 -58
t59.5 -140v-2q0 -8 -8 -8zM274 242h176q-3 71 -54 122t-122 54v-176z" />
    <glyph glyph-name="uniE6AB" unicode="&#xe6ab;" 
d="M460 418q8 0 8 -8t-8 -8h-416q-8 0 -8 8t8 8h184v8q0 8 8 8h32q8 0 8 -8v-8h184zM428 386q8 0 8 -8v-288q0 -8 -8 -8h-168v-5l62 -61q6 -6 0 -12q-4 -2 -6 -2t-6 2l-58 59l-58 -59q-4 -2 -6 -2t-6 2q-6 6 0 12l62 61v5h-168q-8 0 -8 8v288q0 8 8 8h352zM420 370h-336
v-272h336v272zM387 301q1 -1 1 -3v-48q0 -8 -8 -8t-8 8v29l-50 -51q-6 -6 -12 0l-26 27l-74 -75q-6 -6 -12 0l-26 27l-42 -43q-4 -2 -6 -2t-6 2q-6 6 0 12l48 48q6 6 12 0l26 -27l74 75q6 6 12 0l26 -27l45 45h-29q-8 0 -8 8t8 8h48q2 0 3 -1q4 0 4 -4z" />
    <glyph glyph-name="uniE6AC" unicode="&#xe6ac;" 
d="M304 366q0 16 -16 16h-64q-16 0 -16 -16q0 -8 -8 -8t-8 8q0 14 9 23t23 9h64q14 0 23 -9t9 -23q0 -8 -8 -8t-8 8zM472 350h-432q-8 0 -8 -8v-128q0 -8 8 -8h8v-184q0 -8 8 -8h400q8 0 8 8v184h8q8 0 8 8v128q0 8 -8 8zM448 30h-384v176h80v-24q0 -8 8 -8t8 8v24h192v-24
q0 -8 8 -8t8 8v24h80v-176zM464 222h-96v24q0 8 -8 8t-8 -8v-24h-192v24q0 8 -8 8t-8 -8v-24h-96v112h416v-112z" />
    <glyph glyph-name="uniE6AD" unicode="&#xe6ad;" 
d="M256 2h-3q-71 27 -122 88t-51 152v136q0 8 8 8q80 0 163 62q5 5 10 0q83 -62 163 -62q8 0 8 -8v-136q0 -91 -51 -152t-122 -88h-3zM96 370v-128q0 -53 19.5 -96.5t50 -69t51 -38t39.5 -19.5q19 7 39.5 19.5t51 38t50 69t19.5 96.5v128q-85 3 -160 62q-75 -58 -160 -62z
" />
    <glyph glyph-name="uniE6AE" unicode="&#xe6ae;" 
d="M424 386q8 0 8 -8v-136q0 -47 -16.5 -87.5t-38 -65.5t-50.5 -45.5t-45 -28.5t-31 -13h-3h-3q-14 5 -29.5 12.5t-44 27.5t-50 44t-38.5 63t-19 84v1v1v7v136q0 8 8 8q49 0 96 19.5t75 42.5q0 1 1 1h1q3 1 6 0h1l1 -1q28 -23 75 -42.5t96 -19.5zM416 370q-83 4 -160 56
v-184h160v128zM80 242h160v184q-77 -52 -160 -56v-128zM81 226q3 -45 21.5 -83t46.5 -62t49 -37t42 -22v204h-159zM256 22q21 9 42 22t49 37t46.5 62t21.5 83h-159v-204z" />
    <glyph glyph-name="uniE6AF" unicode="&#xe6af;" 
d="M456 322q8 0 8 -8v-304q0 -8 -8 -8h-400q-8 0 -8 8v304q0 8 8 8h104v32q0 40 28 68t68 28t68 -28t28 -68v-32h104zM176 322h160v32q0 33 -23.5 56.5t-56.5 23.5t-56.5 -23.5t-23.5 -56.5v-32zM448 306h-96v-40q0 -8 -8 -8t-8 8v40h-160v-40q0 -8 -8 -8t-8 8v40h-96v-288
h384v288z" />
    <glyph glyph-name="uniE6B0" unicode="&#xe6b0;" 
d="M138 236q-3 0 -4 1q-7 5 -3 11l96 144q5 7 11 3q7 -5 3 -11l-96 -144q-3 -4 -7 -4zM362 236q-4 0 -7 4l-96 144q-4 6 3 11q6 4 11 -3l96 -144q4 -6 -3 -11q-1 -1 -4 -1zM306 268h-112q-8 0 -8 8t8 8h112q8 0 8 -8t-8 -8zM474 284h-96q-8 0 -8 -8t8 -8h88v-31
q-2 -17 -16 -17h-400q-14 0 -16 16v32h88q8 0 8 8t-8 8h-96q-8 0 -8 -8v-41q1 -17 17 -27l31 -165q2 -14 10.5 -22.5t21.5 -8.5h304q12 0 21.5 9t10.5 22l31 165q14 9 17 27v1v40q0 8 -8 8zM418 45q-2 -17 -16 -17h-304q-14 0 -16 17v1l-30 158h396z" />
    <glyph glyph-name="uniE6B1" unicode="&#xe6b1;" 
d="M121 71q-7 -7 -17 -7t-17 7t-7 17t7 17t17 7t17 -7t7 -17t-7 -17zM112 88q0 8 -8 8t-8 -8t8 -8t8 8zM473 71q-7 -7 -17 -7t-17 7t-7 17t7 17t17 7t17 -7t7 -17t-7 -17zM464 88q0 8 -8 8t-8 -8t8 -8t8 8zM153 200q-21 -2 -36.5 -20t-19.5 -36h375q8 0 8 -8t-8 -8h-384
q-8 0 -8 8q0 22 18 46.5t44 31.5l-68 218h-34q-8 0 -8 8t8 8h40q6 0 8 -6l8 -26h376q8 0 8 -8v-168q0 -8 -7 -8zM101 400l57 -183l306 30v153h-363z" />
    <glyph glyph-name="uniE6B2" unicode="&#xe6b2;" 
d="M403 95q-61 -61 -147 -61t-147 61t-61 147t61 147t147 61t147 -61t61 -147t-61 -147zM392 378q-56 56 -136 56t-136 -56t-56 -136t56 -136t136 -56t136 56t56 136t-56 136zM366 352q-6 4 -10 1l-136 -72l-3 -3l-72 -136q-3 -4 1 -10q4 -2 6 -2q3 0 4 1l136 72l3 3l72 136
q3 4 -1 10zM226 261l49 -49l-104 -55zM286 223l-49 49l104 55z" />
    <glyph glyph-name="uniE6B3" unicode="&#xe6b3;" 
d="M339 162q-44 -44 -107 -44t-107.5 44.5t-44.5 107.5t44.5 107.5t107.5 44.5t107.5 -44.5t44.5 -107.5t-45 -108zM328 366q-40 40 -96 40t-96 -40t-40 -96t40 -96t96 -40t96 40t40 96t-40 96zM432 270q0 -81 -56 -139t-136 -61v-32h40q8 0 8 -8t-8 -8h-96q-8 0 -8 8t8 8
h40v32q-37 1 -73 17q-8 4 -4 11q3 6 10 4q35 -16 74 -16h1h1q76 0 129.5 54t53.5 130q0 53 -29 99t-78 68q-1 1 -2 1t-2 1q-7 4 -4 10q4 7 10 4q1 0 2.5 -0.5t2.5 -0.5q53 -25 84.5 -74.5t31.5 -107.5z" />
    <glyph glyph-name="uniE6B4" unicode="&#xe6b4;" 
d="M461 166l-43 52h86zM315 235v-104h-139v104h17v35q0 21 16 36t37 15q20 0 36 -15t16 -36v-35h17zM211 235h68v35q0 14 -9.5 24.5t-23.5 10.5q-15 0 -25 -10.5t-10 -24.5v-35zM246 9q43 0 80 16.5t67 45.5l12 -12q-31 -31 -71.5 -48t-87.5 -17t-88.5 17.5t-72 48t-48.5 71
t-18 87.5q0 46 18 87t48.5 71.5t72 48t88.5 17.5q46 0 87.5 -17.5t72 -48t48.5 -71.5t18 -87h-19q0 43 -16.5 81t-44.5 66.5t-65.5 45t-80.5 16.5t-81 -16.5t-66 -45t-44.5 -66.5t-16.5 -81t16.5 -81t44.5 -66.5t66 -45t81 -16.5z" />
    <glyph glyph-name="uniE6B5" unicode="&#xe6b5;" 
d="M477 432q3 -2 3 -6v-352q0 -6 -5 -8l-144 -48h-3v0h-3l-141 48l-141 -48h-3q-1 0 -2.5 0.5t-2.5 0.5q-3 3 -3 7v352q0 5 5 8l144 48h3v0h3l141 -48l141 48q6 0 8 -2zM192 80l128 -43v335l-128 43v-335zM48 37l128 43v335l-128 -43v-335zM464 415l-128 -43v-335l128 43
v335z" />
    <glyph glyph-name="uniE6B6" unicode="&#xe6b6;" 
d="M241 7l-115 247q-14 30 -14 60q0 56 40 96t96 40t96 -40t40 -96q0 -30 -14 -60l-115 -247q-2 -5 -7 -5t-7 5zM128 314q0 -28 12 -53l108 -232l108 232q12 25 12 53q0 50 -35 85t-85 35t-85 -35t-35 -85zM287 274q-16 -16 -39 -16t-39.5 16.5t-16.5 39.5t16.5 39.5
t39.5 16.5t39.5 -16.5t16.5 -39.5t-17 -40zM276 342q-12 12 -28 12t-28 -12t-12 -28t12 -28t28 -12t28 12t12 28t-12 28z" />
    <glyph glyph-name="uniE6B7" unicode="&#xe6b7;" 
d="M384 173q0 -8 -8 -8h-120v-184q0 -8 -8 -8t-8 8v184h-120q-8 0 -8 8q0 26 22.5 50.5t57.5 35.5v117q-21 10 -34.5 30.5t-13.5 38.5q0 8 8 8h192q8 0 8 -8q0 -18 -13.5 -38.5t-34.5 -30.5v-117q34 -11 56.5 -35t23.5 -50v-1zM208 261h80v112h-80v-112zM161 437
q8 -34 41 -48h92q33 14 41 48h-174zM367 181q-4 19 -23.5 37t-48.5 27h-94q-29 -9 -48.5 -27t-23.5 -37h238z" />
    <glyph glyph-name="uniE6B8" unicode="&#xe6b8;" 
d="M436 267q7 -5 3 -11q-3 -4 -7 -4q-3 0 -4 1l-18 12l-20 -26q-2 -3 -6 -3q-1 0 -5 2q-6 4 -1 11l19 25l-17 11q-7 5 -3 11q5 7 11 3l18 -12l20 26q4 6 11 1q6 -4 1 -11l-19 -25zM477 442q3 -2 3 -6v-352q0 -6 -5 -8l-144 -48h-3h-3l-141 48l-141 -48h-3q-1 0 -2.5 0.5
t-2.5 0.5q-3 3 -3 7v352q0 5 5 8l144 48h3h3l141 -48l141 48q6 0 8 -2zM192 90l128 -43v335l-128 43v-126q5 -4 4 -8q0 -4 -4 -6v-195zM48 47l128 43v193h-1q-1 0 -2 -1q-6 0 -8 6q-2 8 6 10q1 1 5 1v126l-128 -43v-335zM464 425l-128 -43v-218q2 0 4 0.5t4 0.5q7 2 9 -7
q2 -7 -7 -9q-1 0 -4.5 -0.5t-5.5 -0.5v-101l128 43v335zM112 204h-2q-8 3 -6 10q1 3 3 8q4 8 10 5q9 -2 5 -10l-2 -7q-2 -6 -8 -6zM228 278q6 -8 10 -13q5 -7 -2 -11q-2 -2 -5 -2q-5 0 -6 4q-6 8 -9 11q-5 7 0 12q6 5 12 -1zM259 230q1 -2 3.5 -6.5t3.5 -6.5q5 -6 -2 -11
l-4 -2q-5 0 -7 4q-6 10 -8 14q-4 8 3 11q8 4 11 -3zM298 175q7 -5 1 -11q-1 -3 -6 -3q-3 0 -5 2q-6 5 -12 12q-6 6 1 11q5 5 11 -1zM135 273q6 6 11 1q7 -5 1 -11q-6 -8 -8 -12q-3 -4 -7 -4q-3 0 -4 1q-7 5 -3 11q2 3 10 14zM386 166q-2 -2 -5 -2t-6 3q-5 7 1 11l10 10
q5 6 11 2t2 -12q-11 -11 -13 -12zM407 212h-1q-7 2 -7 9l1 7q0 8 8 8t8 -8q0 -4 -1 -9q0 -7 -8 -7z" />
    <glyph glyph-name="uniE6B9" unicode="&#xe6b9;" 
d="M462 338q6 -6 0 -12l-72 -72q-4 -2 -6 -2h-112v-232q0 -8 -8 -8h-32q-8 0 -8 8v232h-168q-8 0 -8 8v144q0 8 8 8h168v40q0 8 8 8h32q8 0 8 -8v-40h112q2 0 6 -2zM240 412h16v32h-16v-32zM256 252h-16v-224h16v224zM445 332l-64 64h-317v-128h317z" />
    <glyph glyph-name="uniE6BA" unicode="&#xe6ba;" 
d="M462 370q6 -6 0 -12l-40 -40q-4 -2 -6 -2h-128v-48h120q8 0 8 -8v-80q0 -8 -8 -8h-120v-152q0 -8 -8 -8h-32q-8 0 -8 8v152h-144q-2 0 -6 2l-40 40q-6 6 0 12l40 40q4 2 6 2h144v48h-136q-8 0 -8 8v80q0 8 8 8h136v40q0 8 8 8h32q8 0 8 -8v-40h128q2 0 6 -2zM256 412h16
v32h-16v-32zM272 172h-16v-144h16v144zM400 252h-301l-32 -32l32 -32h301v64zM272 316h-16v-48h16v48zM445 364l-32 32h-301v-64h301z" />
    <glyph glyph-name="uniE6BB" unicode="&#xe6bb;" 
d="M256 427q44 0 83 -16.5t68 -45.5t45.5 -68t16.5 -83t-16.5 -83t-45.5 -68t-68 -45.5t-83 -16.5t-83 16.5t-68 45.5t-45.5 68t-16.5 83t16.5 83t45.5 68t68 45.5t83 16.5zM405 299l-30 30l-162 -162l-76 77l-30 -30l106 -107z" />
    <glyph glyph-name="uniE6BC" unicode="&#xe6bc;" 
d="M128 352q-8 0 -8 8t8 8q16 0 16 16q0 7 -14 19q-5 5 -8 7l-6 6q-20 18 -20 32t9 23t23 9q8 0 8 -8t-8 -8q-16 0 -16 -16q0 -7 15 -20q1 -1 3.5 -3t3.5 -3q3 -4 7 -7q19 -17 19 -31t-9 -23t-23 -9zM208 352q-8 0 -8 8t8 8q16 0 16 16q0 7 -14 19q-5 5 -8 7l-6 6
q-20 18 -20 32t9 23t23 9q8 0 8 -8t-8 -8q-16 0 -16 -16q0 -7 15 -20q1 -1 3.5 -3t3.5 -3q3 -4 7 -7q19 -17 19 -31t-9 -23t-23 -9zM288 352q-8 0 -8 8t8 8q16 0 16 16q0 7 -14 19q-5 5 -8 7l-6 6q-20 18 -20 32t9 23t23 9q8 0 8 -8t-8 -8q-16 0 -16 -16q0 -7 15 -20
q1 -1 3.5 -3t3.5 -3q3 -4 7 -7q19 -17 19 -31t-9 -23t-23 -9zM416 320h-376q-8 0 -8 -8v-120q0 -51 27.5 -94.5t73.5 -65.5q1 -1 75 -1t75 1q46 22 73.5 65.5t27.5 94.5h32q20 0 34 14t14 34v32q0 20 -14 34t-34 14zM368 192q0 -46 -24.5 -85t-65.5 -59h-140
q-41 20 -65.5 59t-24.5 85v112h320v-112zM448 240q0 -14 -9 -23t-23 -9h-32v96h32q14 0 23 -9t9 -23v-32z" />
    <glyph glyph-name="uniE6BD" unicode="&#xe6bd;" 
d="M480 345q0 -37 -17.5 -61t-46.5 -27v-248q0 -8 -8 -8t-8 8v248q-29 3 -46.5 27t-17.5 61q0 43 21 73.5t51 30.5t51 -30.5t21 -73.5zM352 345q0 -33 15 -52.5t41 -19.5t41 19.5t15 52.5q0 37 -16.5 62.5t-39.5 25.5t-39.5 -25.5t-16.5 -62.5zM264 449q8 0 8 -8v-432
q0 -8 -8 -8t-8 8v169q-28 4 -46 32.5t-18 68.5q0 73 20.5 121.5t51.5 48.5zM208 279q0 -33 13.5 -56.5t34.5 -28.5v237q-19 -9 -33.5 -51t-14.5 -101zM128 441q0 8 8 8t8 -8v-80q0 -21 -14 -36.5t-34 -18.5v-297q0 -8 -8 -8t-8 8v297q-20 3 -34 18.5t-14 36.5v80q0 8 8 8
t8 -8v-80q0 -14 9 -25t23 -14v119q0 8 8 8t8 -8v-119q14 3 23 14t9 25v80z" />
    <glyph glyph-name="uniE6BE" unicode="&#xe6be;" 
d="M384 383q0 -27 -11.5 -51t-26 -39t-35 -28.5t-32 -18.5t-23.5 -10v-188h72q8 0 8 -8t-8 -8h-160q-8 0 -8 8t8 8h72v188q-12 5 -23.5 10t-32 18.5t-35 28.5t-26 39t-11.5 51q0 24 7 47t12.5 33.5t7.5 12.5q1 4 7 4h204q6 0 7 -4q2 -2 7.5 -12.5t12.5 -33.5t7 -47zM150 464
q-22 -37 -22 -80h240q0 43 -22 80h-196zM248 251q16 5 36.5 15t49 38.5t33.5 63.5h-238q5 -35 33.5 -63.5t49 -38.5t36.5 -15z" />
    <glyph glyph-name="uniE6C0" unicode="&#xe6c0;" 
d="M96 192v128q0 68 43.5 114t108.5 46t108.5 -46t43.5 -114v-128q0 -68 -43.5 -114t-108.5 -46t-108.5 46t-43.5 114zM112 320v-128q0 -62 39 -103t97 -41t97 41t39 103v128q0 62 -39 103t-97 41t-97 -41t-39 -103zM248 80q-2 0 -3 1q-5 2 -5 7v146l-83 -72q-6 -6 -11 1
q-6 6 1 11l93 82l-93 82q-7 5 -1 11q5 7 11 1l83 -72v146q0 5 5 7q4 3 8 -1l96 -88q3 -3 3 -6q0 -4 -3 -6l-84 -74l84 -74q3 -2 3 -6q0 -3 -3 -6l-96 -88q-2 -2 -5 -2zM256 242v-136l76 70zM256 406v-136l76 66z" />
    <glyph glyph-name="uniE6C1" unicode="&#xe6c1;" 
d="M392 144h-64q-8 0 -8 8t8 8h64q30 0 51 21t21 51q0 26 -16.5 46t-42.5 25q-8 2 -6 9q1 5 1 16q0 43 -30.5 73.5t-73.5 30.5q-34 0 -62 -21t-38 -53q0 -4 -5 -6q-6 0 -8 2q-14 14 -35 14q-22 0 -37 -15t-15 -37q0 -6 1 -9q0 -6 -5 -9q-44 -18 -44 -66q0 -30 21 -51t51 -21
h112q8 0 8 -8t-8 -8h-112q-37 0 -62.5 25.5t-25.5 62.5q0 54 48 79v5q0 28 20 48t48 20q20 0 37 -11q14 34 44 54.5t67 20.5q50 0 85 -35t35 -85q0 -7 -1 -11q29 -8 47 -31.5t18 -53.5q0 -37 -25.5 -62.5t-62.5 -25.5zM338 126l-50 -51v221q0 8 -8 8t-8 -8v-221l-50 51
q-6 6 -12 0t0 -12l64 -64h1q1 -1 2 -1q1 -1 3 -1t3 1q1 0 3 1l64 64q6 6 0 12t-12 0z" />
    <glyph glyph-name="uniE6C2" unicode="&#xe6c2;" 
d="M392 144h-64q-8 0 -8 8t8 8h64q30 0 51 21t21 51q0 26 -16.5 46t-42.5 25q-8 2 -6 9q1 5 1 16q0 43 -30.5 73.5t-73.5 30.5q-34 0 -62 -21t-38 -53q0 -4 -5 -6q-6 0 -8 2q-14 14 -35 14q-22 0 -37 -15t-15 -37q0 -6 1 -9q0 -6 -5 -9q-44 -18 -44 -66q0 -30 21 -51t51 -21
h112q8 0 8 -8t-8 -8h-112q-37 0 -62.5 25.5t-25.5 62.5q0 54 48 79v5q0 28 20 48t48 20q20 0 37 -11q14 34 44 54.5t67 20.5q50 0 85 -35t35 -85q0 -7 -1 -11q29 -8 47 -31.5t18 -53.5q0 -37 -25.5 -62.5t-62.5 -25.5zM350 238l-64 64h-1q-1 1 -2 1q-3 1 -6 0q-1 0 -3 -1
l-64 -64q-6 -6 0 -12t12 0l50 51v-221q0 -8 8 -8t8 8v221l50 -51q4 -2 6 -2t6 2q6 6 0 12z" />
    <glyph glyph-name="uniE6C3" unicode="&#xe6c3;" 
d="M80 424q0 27 53 41.5t123 14.5t123 -14.5t53 -41.5v-336q0 -27 -53 -41.5t-123 -14.5t-123 14.5t-53 41.5v336zM416 287q-44 -31 -160 -31t-160 31v-87q0 -8 17.5 -17t56 -16t86.5 -7t86.5 7t56 16t17.5 17v87zM416 399q-44 -31 -160 -31t-160 31v-87q0 -8 17.5 -17
t56 -16t86.5 -7t86.5 7t56 16t17.5 17v87zM169 457q-38 -7 -55.5 -16t-17.5 -17t17.5 -17t56 -16t86.5 -7t86.5 7t56 16t17.5 17t-17.5 17t-56 16t-86.5 7t-87 -7zM96 88q0 -8 17.5 -17t56 -16t86.5 -7t86.5 7t56 16t17.5 17v87q-44 -31 -160 -31t-160 31v-87z" />
    <glyph glyph-name="uniE6C4" unicode="&#xe6c4;" 
d="M48 416q0 23 45 35.5t107 12.5t107 -12.5t45 -35.5v-192q0 -23 -45 -35.5t-107 -12.5q-98 0 -136 25v-73q0 -7 15 -14t47.5 -12.5t73.5 -5.5q21 0 32 1q8 0 8 -8t-8 -8q-10 -1 -32 -1q-62 0 -107 12.5t-45 35.5v288zM336 393q-38 -25 -136 -25t-136 25v-73q0 -7 15 -14
t47.5 -12.5t73.5 -5.5t73.5 5.5t47.5 12.5t15 14v73zM126 442q-32 -5 -47 -12t-15 -14t15 -14t47.5 -12.5t73.5 -5.5t73.5 5.5t47.5 12.5t15 14t-15 14t-47.5 12.5t-73.5 5.5t-74 -6zM64 224q0 -7 15 -14t47.5 -12.5t73.5 -5.5t73.5 5.5t47.5 12.5t15 14v73
q-38 -25 -136 -25t-136 25v-73zM458 218q6 -6 6 -14.5t-6 -13.5l-14 -14l-125 -125l-2 -2l-65 -32q-2 -1 -4 -1t-6 2q-3 5 -1 10l32 65l2 2l3 3v0l121 123h1l14 13q14 14 28 0zM266 42l38 19l-19 19zM427 182l-22 22l-110 -111l22 -22zM447 201q1 1 1 2.5t-1 2.5l-17 17
q-1 1 -2 1q-2 0 -3 -1l-8 -8l21 -22z" />
    <glyph glyph-name="uniE6C5" unicode="&#xe6c5;" 
d="M32 416q0 23 45 35.5t107 12.5t107 -12.5t45 -35.5v-288q0 -21 -37 -33q-1 -1 -3 -1q-5 0 -8 6q-2 7 5 10q27 8 27 18v73q-38 -25 -136 -25t-136 25v-73q0 -7 15 -14t47.5 -12.5t73.5 -5.5q8 0 8 -8t-8 -8q-62 0 -107 12.5t-45 35.5v288zM320 393q-38 -25 -136 -25
t-136 25v-73q0 -7 15 -14t47.5 -12.5t73.5 -5.5t73.5 5.5t47.5 12.5t15 14v73zM110 442q-32 -5 -47 -12t-15 -14t15 -14t47.5 -12.5t73.5 -5.5t73.5 5.5t47.5 12.5t15 14t-15 14t-47.5 12.5t-73.5 5.5t-74 -6zM48 224q0 -7 15 -14t47.5 -12.5t73.5 -5.5t73.5 5.5t47.5 12.5
t15 14v73q-38 -25 -136 -25t-136 25v-73zM450 206q6 6 12 0t0 -12l-160 -159v-1q-4 -2 -6 -2t-6 2l-80 80q-6 6 0 12t12 0l74 -75z" />
    <glyph glyph-name="uniE6C6" unicode="&#xe6c6;" 
d="M48 416q0 23 45 35.5t107 12.5t107 -12.5t45 -35.5v-144q0 -8 -8 -8t-8 8v25q-38 -25 -136 -25t-136 25v-57q0 -22 36 -35t100 -13q36 0 71 5q7 2 9 -7q2 -7 -7 -9q-37 -5 -73 -5q-100 0 -136 30v-78q0 -7 15 -14t47.5 -12.5t73.5 -5.5h16q8 0 8 -8t-8 -8h-16
q-62 0 -107 12.5t-45 35.5v288zM126 442q-32 -5 -47 -12t-15 -14t15 -14t47.5 -12.5t73.5 -5.5t73.5 5.5t47.5 12.5t15 14t-15 14t-47.5 12.5t-73.5 5.5t-74 -6zM64 320q0 -7 15 -14t47.5 -12.5t73.5 -5.5t73.5 5.5t47.5 12.5t15 14v73q-38 -25 -136 -25t-136 25v-73z
M448 32h-176q-14 0 -23 9t-9 23q0 2 0.5 5t1 4.5t0.5 2.5l1 2l1 1l90 147q9 14 26 14q16 0 26 -13l90 -148l1 -1l1 -2q0 -3 1 -6t1 -6q0 -14 -9 -23t-23 -9zM258 71q-2 -4 -2 -7q0 -16 16 -16h176q16 0 16 16q0 3 -2 7l-89 147q-6 6 -13 6q-8 0 -13 -7zM352 120v64q0 8 8 8
t8 -8v-64q0 -8 -8 -8t-8 8zM354 82q-2 4 -2 6t2 6q6 6 12 0q2 -4 2 -6t-2 -6q-4 -2 -6 -2t-6 2z" />
    <glyph glyph-name="uniE6C7" unicode="&#xe6c7;" 
d="M470 407q10 -8 10 -23v-256q0 -14 -9 -23t-23 -9h-384q-14 0 -23 9t-9 23v256q0 13 10 23q0 1 1 1q8 8 21 8h384q11 0 21 -8q1 0 1 -1zM64 400h-3l183 -184q4 -4 11 -4t12 4l183 184h-2h-384zM448 112q3 0 4 1l-114 113q-6 6 0 12t12 0l113 -114q1 1 1 4v256q0 4 -1 6
l-185 -185q-9 -9 -22 -9q-14 0 -23 9l-184 184q-1 -2 -1 -5v-256q0 -3 1 -4l113 114q6 6 12 0t0 -12l-114 -113q1 -1 4 -1h384z" />
    <glyph glyph-name="uniE6C8" unicode="&#xe6c8;" 
d="M454 471q10 -8 10 -23v-224q0 -14 -9 -23t-23 -9h-352q-14 0 -23 9t-9 23v224q0 13 10 23l1 1q8 8 21 8h352q11 0 21 -8q1 0 1 -1zM80 464h-3l167 -168q4 -4 11 -4t12 4l167 168h-2h-352zM432 208q3 0 4 1l-98 97q-6 6 0 12t12 0l97 -98q1 1 1 4v224q0 4 -1 6l-169 -169
q-9 -9 -22 -9q-14 0 -23 9l-168 168q-1 -2 -1 -5v-224q0 -3 1 -4l97 98q6 6 12 0t0 -12l-98 -97q1 -1 4 -1h352zM392 112q8 0 8 -8t-8 -8h-253l51 -50q6 -6 0 -12q-4 -2 -6 -2t-6 2l-64 64q-1 2 -1 3q-1 3 0 6q0 1 1 2v1l64 64q6 6 12 0t0 -12l-51 -50h253z" />
    <glyph glyph-name="uniE6C9" unicode="&#xe6c9;" 
d="M454 471q10 -8 10 -23v-224q0 -14 -9 -23t-23 -9h-352q-14 0 -23 9t-9 23v224q0 13 10 23l1 1q8 8 21 8h352q11 0 21 -8q1 0 1 -1zM80 464h-3l167 -168q4 -4 11 -4t12 4l167 168h-2h-352zM432 208q3 0 4 1l-98 97q-6 6 0 12t12 0l97 -98q1 1 1 4v224q0 4 -1 6l-169 -169
q-9 -9 -22 -9q-14 0 -23 9l-168 168q-1 -2 -1 -5v-224q0 -3 1 -4l97 98q6 6 12 0t0 -12l-98 -97q1 -1 4 -1h352zM399 101q0 -1 -1 -2v-1l-64 -64q-4 -2 -6 -2t-6 2q-6 6 0 12l51 50h-253q-8 0 -8 8t8 8h253l-51 50q-6 6 0 12t12 0l64 -64q1 -2 1 -3q1 -3 0 -6z" />
    <glyph glyph-name="uniE6CA" unicode="&#xe6ca;" 
d="M408 -5l-23 -15l-253 477l22 12zM310 15q8 0 13 -3.5t6 -11.5q0 -5 -4.5 -9.5t-12.5 -4.5h-104q-8 0 -13.5 4.5t-5.5 9.5q0 6 4.5 10.5t12.5 4.5h37v9v57q0 10 -9 10q-41 8 -68 32.5t-41 62.5q-4 10 -5 21.5t-3 22.5q0 6 3.5 11.5t10.5 5.5q5 0 9.5 -4.5t4.5 -11.5
q2 -36 19 -63.5t50 -41.5q35 -16 74 -4q4 0 5 1t1 2l14 -27q-6 -1 -12.5 -3t-14.5 -4q-6 0 -7.5 -2t-1.5 -8v-66h38zM336 152q16 13 23 34q4 10 6 20.5t5 19.5v7q0 14 13 14q12 0 12 -16q0 -20 -5.5 -40t-16.5 -37q-5 -8 -10.5 -14.5t-10.5 -11.5zM342 235q0 -29 -18 -55
l-128 240q15 21 46 27q15 4 30.5 0.5t28.5 -12.5t22.5 -22t12.5 -29q2 -8 4 -16.5t2 -16.5v-54v-62zM262 147q-29 -2 -55 17t-31 57q-2 4 -2.5 8t-0.5 9v114l107 -202q-5 -1 -9 -2t-9 -1z" />
    <glyph glyph-name="uniE6CB" unicode="&#xe6cb;" 
d="M321 385q1 -8 2 -16.5t1 -16.5v-53v-63q0 -30 -18 -54q-8 -13 -22 -22t-28 -11q-15 -3 -31 0t-29 11.5t-23 21.5t-13 29q-2 9 -3 17.5t-1 16.5v54v63q0 15 5.5 32t18.5 30q18 20 46 24q14 4 29.5 0.5t29 -12.5t23.5 -22t13 -29zM370 248q6 0 10.5 -5t3.5 -12
q-2 -11 -3.5 -22t-5.5 -21q-12 -33 -32.5 -55.5t-52.5 -33.5h-1q-2 -1 -5.5 -2t-5.5 -1q-3 -2 -6 -2t-8 -2q-5 0 -7.5 -1.5t-2.5 -9.5v-64h38q8 0 14 -4.5t6 -11.5q0 -5 -4 -9t-12 -4h-105q-8 0 -13.5 4t-5.5 9q0 15 16 15h38v10v55q0 10 -9 11q-79 15 -109 96
q-4 10 -4.5 21t-2.5 22q-1 7 3 11.5t9 4.5q16 0 16 -16q3 -74 66 -104q20 -8 39 -11.5t39 3.5q1 0 6.5 2.5t7.5 4.5q28 11 47.5 40.5t21.5 66.5q0 6 4.5 10.5t9.5 4.5z" />
    <glyph glyph-name="uniE6CC" unicode="&#xe6cc;" 
d="M368 218q0 16 16 16t16 -16t-16 -16t-16 16zM472 234q10 0 17 -7t7 -17v-48q0 -10 -7 -17t-17 -7h-33q-11 -29 -33 -49l10 -54q2 -10 -5 -18q-7 -7 -16 -7h-24q-23 0 -27 23l-3 17q-53 -17 -106 0l-3 -17q-4 -23 -27 -23h-24q-9 0 -16 7q-7 8 -5 18l10 54q-42 40 -42 97
h-24q-12 0 -24 5q-12 -5 -24 -5q-16 0 -28 14t-12 34q0 8 8 8t8 -8q0 -13 7 -22.5t17 -9.5q5 0 8 1q-16 16 -16 39q0 17 9.5 28.5t22.5 11.5t22.5 -11.5t9.5 -28.5q0 -23 -16 -39q3 -1 8 -1h25q7 54 52.5 91t106.5 37q33 0 63 -12q22 28 57 28q22 0 40 -12q5 -3 5 -7
q0 -5 -4 -7l-40 -40q20 -21 30 -46h33zM80 210q16 11 16 32q0 10 -4.5 17t-11.5 7t-11.5 -7t-4.5 -17q0 -21 16 -32zM480 210q0 8 -8 8h-38q-6 0 -8 5q-12 31 -34 51q-2 4 -2 6t2 6l40 39q-13 5 -24 5q-31 0 -47 -26q-3 -5 -10 -3q-29 13 -63 13q-59 0 -101.5 -37.5
t-42.5 -90.5q0 -51 40 -88q4 -4 2 -8l-10 -57q0 -4 1 -5q2 -2 4 -2h24q9 0 11 9l5 27q2 5 4 6q4 1 8 0q24 -10 55 -10q30 0 56 10q2 1 3 1t2 -0.5t2 -0.5q2 -2 4 -6l5 -27q2 -9 11 -9h24q2 0 4 2q1 1 1 5l-10 57q-2 4 2 8q22 20 34 51q2 5 7 5h39q8 0 8 8v48zM328 276h-2
q-38 13 -76 0q-6 -2 -10 6q-2 7 6 10q42 12 84 0q8 -3 6 -10q-2 -6 -8 -6z" />
    <glyph glyph-name="uniE6CE" unicode="&#xe6ce;" 
d="M469 95q6 -5 13 -12t6 -13l-1 -7q-4 -10 -11.5 -21.5t-18 -22.5t-22.5 -20t-24 -15h-10q-22 0 -43.5 8.5t-40.5 19.5q-62 35 -118.5 88.5t-99.5 110.5q-12 18 -24 39t-21 41t-13.5 37.5t-1.5 28.5q4 10 12.5 22t19.5 22.5t23 19t24 11.5h12q8 -2 12 -7t9 -11
q24 -39 54 -80q10 -16 2 -33q-2 -3 -6 -10.5t-8.5 -15.5t-7 -15t-0.5 -9q26 -36 58 -63t63 -58q2 -1 4 -1q3 0 4 1q9 5 20 11t22 11q7 4 14 4q8 0 19 -6q20 -14 40.5 -27.5t39.5 -27.5zM476 69q0 1 -4 5q-5 6 -9 9l-1 1q-9 6 -18 12.5t-19 12.5l-42 29q-7 4 -13 4
q-3 0 -9 -2l-1 -1q-6 -2 -12.5 -5.5t-13.5 -7.5l-14 -8q-2 -1 -4.5 -2t-5.5 -1q-2 0 -4.5 1t-4.5 2l-2 1l-1 1q-11 11 -21 20t-21 19q-21 19 -41.5 38.5t-38.5 44.5q-2 2 -4 9q0 5 1 8l5 13l14 25q4 6 4 8q6 10 -1 21l-28 40t-25 39l-4 4q-5 7 -10 10h-8q-20 -6 -41 -27
q-9 -10 -16.5 -20.5t-12.5 -20.5q-1 -2 -0.5 -7t2.5 -14q2 -8 5 -16.5t7 -19.5q8 -19 20 -39.5t25 -38.5q22 -29 47 -56.5t51 -51.5q58 -55 116 -87q17 -10 37.5 -18.5t40.5 -8.5h7q21 11 40.5 32t27.5 38v5z" />
    <glyph glyph-name="uniE6CF" unicode="&#xe6cf;" 
d="M472 236q8 0 8 -8t-8 -8h-237l51 -50q6 -6 0 -12q-4 -2 -6 -2t-6 2l-64 64q-1 2 -1 3q-1 3 0 6q0 1 1 2v1l64 64q6 6 12 0t0 -12l-51 -50h237zM225 34v-14.5t-5 -11.5l-5 -3q-8 -3 -19.5 -5t-24 -2t-25 2t-22.5 6l-6 6q-13 14 -19.5 32t-11.5 35q-14 58 -14 123.5
t11 123.5q4 18 10 37t13 36.5t15.5 30t16.5 16.5q17 6 45 6t45 -11l8 -8q2 -5 1.5 -10.5t-1.5 -12.5q-5 -19 -9.5 -39t-8.5 -40q-4 -14 -18 -20q-3 -1 -10.5 -2t-15 -3t-13 -4.5t-5.5 -5.5q-7 -36 -5 -71t1 -72q0 -1 2 -3l2 -2l18 -4.5t20 -7.5q6 -3 10 -7q6 -6 7 -15
q3 -20 7 -40t6 -40zM212 15q1 1 1 6q1 4 1 10v1q-2 9 -3 18.5t-3 18.5l-6 42q-1 5 -5 11q-2 1 -3.5 1.5t-3.5 2.5h-1q-5 2 -10.5 4t-12.5 4l-13 4q-2 1 -3.5 2t-3.5 3q-2 1 -2.5 3t-1.5 4v2v1v47q-1 24 -0.5 47.5t4.5 49.5q0 1 4 7q1 2 6 4l10 5l23 5q6 2 8 2q10 3 12 13
q4 20 8.5 40t9.5 38v4q1 7 0 12l-5 4q-17 10 -40 10q-11 0 -22 -1t-19 -4q-4 -2 -11 -14q-4 -5 -7.5 -12l-7.5 -15q-7 -16 -13 -35.5t-9 -36.5q-5 -30 -8 -61t-2 -61q-1 -33 2.5 -63.5t10.5 -56.5q4 -16 10.5 -33.5t17.5 -29.5l4 -4q18 -7 43 -7t39 5z" />
    <glyph glyph-name="uniE6D0" unicode="&#xe6d0;" 
d="M474 225q0 -1 -1 -2v-1l-64 -64q-4 -2 -6 -2t-6 2q-6 6 0 12l51 50h-237q-8 0 -8 8t8 8h237l-51 50q-6 6 0 12t12 0l64 -64q1 -2 1 -3q1 -3 0 -6zM225 34v-14.5t-5 -11.5l-5 -3q-8 -3 -19.5 -5t-24 -2t-25 2t-22.5 6l-6 6q-13 14 -19.5 32t-11.5 35q-14 58 -14 123.5
t11 123.5q4 18 10 37t13 36.5t15.5 30t16.5 16.5q17 6 45 6t45 -11l8 -8q2 -5 1.5 -10.5t-1.5 -12.5q-5 -19 -9.5 -39t-8.5 -40q-4 -14 -18 -20q-3 -1 -10.5 -2t-15 -3t-13 -4.5t-5.5 -5.5q-7 -36 -5 -71t1 -72q0 -1 2 -3l2 -2l18 -4.5t20 -7.5q6 -3 10 -7q6 -6 7 -15
q3 -20 7 -40t6 -40zM212 15q1 1 1 6q1 4 1 10v1q-2 9 -3 18.5t-3 18.5l-6 42q-1 5 -5 11q-2 1 -3.5 1.5t-3.5 2.5h-1q-5 2 -10.5 4t-12.5 4l-13 4q-2 1 -3.5 2t-3.5 3q-2 1 -2.5 3t-1.5 4v2v1v47q-1 24 -0.5 47.5t4.5 49.5q0 1 4 7q1 2 6 4l10 5l23 5q6 2 8 2q10 3 12 13
q4 20 8.5 40t9.5 38v4q1 7 0 12l-5 4q-17 10 -40 10q-11 0 -22 -1t-19 -4q-4 -2 -11 -14q-4 -5 -7.5 -12l-7.5 -15q-7 -16 -13 -35.5t-9 -36.5q-5 -30 -8 -61t-2 -61q-1 -33 2.5 -63.5t10.5 -56.5q4 -16 10.5 -33.5t17.5 -29.5l4 -4q18 -7 43 -7t39 5z" />
    <glyph glyph-name="uniE6D1" unicode="&#xe6d1;" 
d="M333 218q0 30 -21 51t-51 21q-8 0 -8 8t8 8q38 0 62 -26q26 -24 26 -62q0 -8 -8 -8t-8 8zM397 218q0 56 -40 96t-96 40q-8 0 -8 8t8 8q64 0 107 -45q45 -43 45 -107q0 -8 -8 -8t-8 8zM461 218q0 84 -59 141q-57 59 -141 59q-8 0 -8 8t8 8q90 0 153 -63t63 -153
q0 -8 -8 -8t-8 8zM465 88q-19 14 -39.5 27.5t-40.5 27.5q-18 9 -33 2q-11 -5 -22 -11t-20 -11q-3 -2 -8 0q-31 31 -63 58t-58 63q-2 2 0.5 9t7 15t8.5 15.5t6 10.5q8 17 -2 33q-30 41 -54 80q-5 6 -9 11t-12 7h-12q-12 -3 -24 -11.5t-23 -19t-19.5 -22.5t-12.5 -22
q-3 -11 1.5 -28.5t13.5 -37.5t21 -41t24 -39q43 -57 99.5 -110.5t118.5 -88.5q21 -12 45.5 -21.5t48.5 -6.5q12 6 24 15t22.5 20t18 22.5t11.5 21.5l1 7q1 6 -6 13t-13 12z" />
    <glyph glyph-name="uniE6D2" unicode="&#xe6d2;" 
d="M448 432q14 0 23 -9t9 -23v-304q0 -14 -9 -23t-23 -9h-384q-14 0 -23 9t-9 23v304q0 14 9 23t23 9h384zM64 416q-16 0 -16 -16v-48h416v48q0 16 -16 16h-384zM448 80q16 0 16 16v240h-416v-240q0 -16 16 -16h384zM400 384q0 16 16 16t16 -16t-16 -16t-16 16zM352 384
q0 16 16 16t16 -16t-16 -16t-16 16zM304 384q0 16 16 16t16 -16t-16 -16t-16 16zM258 112q-43 0 -70 29.5t-27 66.5t27 66.5t70 29.5t69 -21.5t26 -56.5q0 -30 -23 -51q-19 -19 -37 -17q-11 0 -16 8q-8 11 0 27l22 62q2 7 10 5q7 -3 5 -11l-22 -61q-4 -9 -2 -13q1 -1 3 -1
q11 -2 26 12q18 18 18 40q0 28 -21.5 45t-57.5 17t-58.5 -24.5t-22.5 -55.5t22.5 -55.5t58.5 -24.5q41 0 73 32q5 6 11 2t2 -12q-38 -38 -86 -38zM240 151q-16 0 -27.5 10t-11.5 30q0 32 20 50.5t45 18.5q22 0 31 -14q11 -13 4 -33q-3 -7 -10 -5q-8 3 -5 10q3 12 -2 19
t-18 7q-17 0 -33 -13.5t-16 -39.5q0 -24 23 -24q27 0 37 26q2 7 10 5q7 -3 5 -11q-6 -15 -20 -25.5t-32 -10.5z" />
    <glyph glyph-name="uniE6D3" unicode="&#xe6d3;" 
d="M448 432q14 0 23 -9t9 -23v-304q0 -14 -9 -23t-23 -9h-384q-14 0 -23 9t-9 23v304q0 14 9 23t23 9h384zM64 416q-16 0 -16 -16v-48h416v48q0 16 -16 16h-384zM448 80q16 0 16 16v240h-416v-240q0 -16 16 -16h384zM400 384q0 16 16 16t16 -16t-16 -16t-16 16zM352 384
q0 16 16 16t16 -16t-16 -16t-16 16zM304 384q0 16 16 16t16 -16t-16 -16t-16 16z" />
    <glyph glyph-name="uniE6D4" unicode="&#xe6d4;" 
d="M400 384q0 16 16 16t16 -16t-16 -16t-16 16zM352 384q0 16 16 16t16 -16t-16 -16t-16 16zM304 384q0 16 16 16t16 -16t-16 -16t-16 16zM448 432q14 0 23 -9t9 -23v-304q0 -14 -9 -23t-23 -9h-384q-14 0 -23 9t-9 23v304q0 14 9 23t23 9h384zM64 416q-16 0 -16 -16v-48
h416v48q0 16 -16 16h-384zM48 96q0 -16 16 -16h128v256h-144v-240zM448 80q16 0 16 16v240h-256v-256h240z" />
    <glyph glyph-name="uniE6D5" unicode="&#xe6d5;" 
d="M400 384q0 16 16 16t16 -16t-16 -16t-16 16zM352 384q0 16 16 16t16 -16t-16 -16t-16 16zM304 384q0 16 16 16t16 -16t-16 -16t-16 16zM448 432q14 0 23 -9t9 -23v-304q0 -14 -9 -23t-23 -9h-384q-14 0 -23 9t-9 23v304q0 14 9 23t23 9h384zM208 224h256v112h-256v-112z
M64 416q-16 0 -16 -16v-48h416v48q0 16 -16 16h-384zM48 96q0 -16 16 -16h128v256h-144v-240zM448 80q16 0 16 16v112h-256v-128h240z" />
    <glyph glyph-name="uniE6D6" unicode="&#xe6d6;" 
d="M448 432q14 0 23 -9t9 -23v-304q0 -14 -9 -23t-23 -9h-384q-14 0 -23 9t-9 23v304q0 14 9 23t23 9h384zM64 416q-16 0 -16 -16v-48h416v48q0 16 -16 16h-384zM448 80q16 0 16 16v240h-416v-240q0 -16 16 -16h384zM400 384q0 16 16 16t16 -16t-16 -16t-16 16zM352 384
q0 16 16 16t16 -16t-16 -16t-16 16zM304 384q0 16 16 16t16 -16t-16 -16t-16 16zM200 160q-3 0 -5 2l-48 40q-3 2 -3 6t3 6l48 40q6 6 11 -1q6 -6 -1 -11l-41 -34l41 -34q7 -5 1 -11q-2 -3 -6 -3zM312 160q-4 0 -6 3q-6 6 1 11l41 34l-41 34q-7 5 -1 11q5 7 11 1l48 -40
q3 -2 3 -6t-3 -6l-48 -40q-2 -2 -5 -2zM232 128h-3q-7 3 -5 11l48 144q3 7 11 5q7 -3 5 -11l-48 -144q-3 -5 -8 -5z" />
    <glyph glyph-name="uniE6D7" unicode="&#xe6d7;" 
d="M352 464q14 0 23 -9t9 -23v-72q0 -8 -8 -8t-8 8v8h-320v-160q0 -16 16 -16h40q8 0 8 -8t-8 -8h-40q-14 0 -23 9t-9 23v224q0 14 9 23t23 9h288zM368 384v48q0 16 -16 16h-288q-16 0 -16 -16v-48h320zM304 416q0 16 16 16t16 -16t-16 -16t-16 16zM256 416q0 16 16 16
t16 -16t-16 -16t-16 16zM208 416q0 16 16 16t16 -16t-16 -16t-16 16zM448 336q14 0 23 -9t9 -23v-224q0 -14 -9 -23t-23 -9h-288q-14 0 -23 9t-9 23v224q0 14 9 23t23 9h288zM160 320q-16 0 -16 -16v-48h320v48q0 16 -16 16h-288zM448 64q16 0 16 16v160h-320v-160
q0 -16 16 -16h288zM400 288q0 16 16 16t16 -16t-16 -16t-16 16zM352 288q0 16 16 16t16 -16t-16 -16t-16 16zM304 288q0 16 16 16t16 -16t-16 -16t-16 16z" />
    <glyph glyph-name="uniE6D8" unicode="&#xe6d8;" 
d="M208 448q14 0 23 -9t9 -23v-320q0 -14 -9 -23t-23 -9h-160q-14 0 -23 9t-9 23v320q0 14 9 23t23 9h160zM48 432q-16 0 -16 -16v-48h192v48q0 16 -16 16h-160zM208 80q16 0 16 16v256h-192v-256q0 -16 16 -16h160zM160 400q0 16 16 16t16 -16t-16 -16t-16 16zM112 400
q0 16 16 16t16 -16t-16 -16t-16 16zM64 400q0 16 16 16t16 -16t-16 -16t-16 16zM448 448q14 0 23 -9t9 -23v-320q0 -14 -9 -23t-23 -9h-160q-14 0 -23 9t-9 23v320q0 14 9 23t23 9h160zM288 432q-16 0 -16 -16v-48h192v48q0 16 -16 16h-160zM448 80q16 0 16 16v256h-192
v-256q0 -16 16 -16h160zM400 400q0 16 16 16t16 -16t-16 -16t-16 16zM352 400q0 16 16 16t16 -16t-16 -16t-16 16zM304 400q0 16 16 16t16 -16t-16 -16t-16 16z" />
    <glyph glyph-name="uniE6D9" unicode="&#xe6d9;" 
d="M432 432q14 0 23 -9t9 -23v-304q0 -14 -9 -23t-23 -9h-368q-14 0 -23 9t-9 23v304q0 14 9 23t23 9h368zM64 416q-16 0 -16 -16v-48h400v48q0 16 -16 16h-368zM432 80q16 0 16 16v240h-400v-240q0 -16 16 -16h368zM384 384q0 16 16 16t16 -16t-16 -16t-16 16zM336 384
q0 16 16 16t16 -16t-16 -16t-16 16zM288 384q0 16 16 16t16 -16t-16 -16t-16 16zM137 175q-7 0 -8 6l-17 48q-2 7 5 10q8 2 11 -5l8 -25l8 25q2 6 8 6t8 -6l8 -25l8 25q3 7 11 5q7 -2 5 -10l-16 -48q-2 -6 -8 -6t-8 6l-8 25l-8 -25q-2 -6 -7 -6zM233 175q-7 0 -8 6l-17 48
q-2 7 5 10q8 2 11 -5l8 -25l8 25q2 6 8 6t8 -6l8 -25l8 25q3 7 11 5q7 -2 5 -10l-16 -48q-2 -6 -8 -6t-8 6l-8 25l-8 -25q-2 -6 -7 -6zM329 175q-7 0 -8 6l-17 48q-2 7 5 10q8 2 11 -5l8 -25l8 25q2 6 8 6t8 -6l8 -25l8 25q3 7 11 5q7 -2 5 -10l-16 -48q-2 -6 -8 -6t-8 6
l-8 25l-8 -25q-2 -6 -7 -6z" />
    <glyph glyph-name="uniE6DA" unicode="&#xe6da;" 
d="M414 374q2 -4 2 -6v-304q0 -14 -9 -23t-23 -9h-272q-14 0 -23 9t-9 23v368q0 14 9 23t23 9h208q2 0 6 -2zM320 445v-61q0 -16 16 -16h61zM384 48q16 0 16 16v288h-64q-14 0 -23 9t-9 23v64h-192q-16 0 -16 -16v-368q0 -16 16 -16h272z" />
    <glyph glyph-name="uniE6DB" unicode="&#xe6db;" 
d="M334 310l-72 72q-4 2 -6 2h-160q-14 0 -23 -9t-9 -23v-288q0 -14 9 -23t23 -9h208q14 0 23 9t9 23v240q0 2 -2 6zM317 304h-45q-16 0 -16 16v45zM304 48h-208q-16 0 -16 16v288q0 16 16 16h144v-48q0 -14 9 -23t23 -9h48v-224q0 -16 -16 -16zM176 408v24q0 14 9 23t23 9
q8 0 8 -8t-8 -8q-16 0 -16 -16v-24q0 -8 -8 -8t-8 8zM446 390l-72 72q-4 2 -6 2h-160q-8 0 -8 -8t8 -8h144v-48q0 -14 9 -23t23 -9h48v-224q0 -16 -16 -16h-56q-8 0 -8 -8t8 -8h56q14 0 23 9t9 23v240q0 2 -2 6zM368 400v45l61 -61h-45q-16 0 -16 16z" />
    <glyph glyph-name="uniE6DC" unicode="&#xe6dc;" 
d="M414 374q2 -4 2 -6v-304q0 -14 -9 -23t-23 -9h-272q-14 0 -23 9t-9 23v368q0 14 9 23t23 9h208q2 0 6 -2zM320 445v-61q0 -16 16 -16h61zM384 48q16 0 16 16v288h-64q-14 0 -23 9t-9 23v64h-192q-16 0 -16 -16v-368q0 -16 16 -16h272zM232 336h-96q-8 0 -8 8t8 8h96
q8 0 8 -8t-8 -8zM360 288h-224q-8 0 -8 8t8 8h224q8 0 8 -8t-8 -8zM360 240h-224q-8 0 -8 8t8 8h224q8 0 8 -8t-8 -8zM360 192h-224q-8 0 -8 8t8 8h224q8 0 8 -8t-8 -8zM312 144h-176q-8 0 -8 8t8 8h176q8 0 8 -8t-8 -8z" />
    <glyph glyph-name="uniE6DD" unicode="&#xe6dd;" 
d="M469 337q1 -1 1 -3v-288q0 -8 -8 -8h-416q-8 0 -8 8v288q0 2 1 3v1l1 1l80 96q2 3 6 3h256q4 0 6 -3l80 -96l1 -1v-1zM63 342h127q8 0 8 -8q0 -23 16.5 -39.5t39.5 -16.5t39.5 16.5t16.5 39.5q0 8 8 8h127l-67 80h-248zM454 182h-128q-3 -27 -23.5 -45.5t-48.5 -18.5
t-48.5 18.5t-23.5 45.5h-128v-128h400v128zM199 182q3 -20 18.5 -34t36.5 -14t36.5 14t18.5 34h-110zM454 326h-128q-3 -27 -23.5 -45.5t-48.5 -18.5t-48.5 18.5t-23.5 45.5h-128v-128h400v128z" />
    <glyph glyph-name="uniE6DE" unicode="&#xe6de;" 
d="M479 283q1 -1 1 -3v-160q0 -8 -8 -8h-448q-8 0 -8 8v160q0 2 1 3v1l1 1l80 96q2 3 6 3h288q4 0 6 -3l80 -96l1 -1v-1zM41 288h143q8 0 8 -8q0 -23 16.5 -39.5t39.5 -16.5t39.5 16.5t16.5 39.5q0 8 8 8h143l-67 80h-280zM464 128v144h-144q-3 -27 -23.5 -45.5t-48.5 -18.5
t-48.5 18.5t-23.5 45.5h-144v-144h432z" />
    <glyph glyph-name="uniE6DF" unicode="&#xe6df;" 
d="M296 32h-224q-8 0 -8 8v288q0 8 8 8h224q8 0 8 -8v-288q0 -8 -8 -8zM80 48h208v272h-208v-272zM360 96h-32q-8 0 -8 8t8 8h24v272h-208v-24q0 -8 -8 -8t-8 8v32q0 8 8 8h224q8 0 8 -8v-288q0 -8 -8 -8zM424 160h-32q-8 0 -8 8t8 8h24v272h-208v-24q0 -8 -8 -8t-8 8v32
q0 8 8 8h224q8 0 8 -8v-288q0 -8 -8 -8z" />
    <glyph glyph-name="uniE6E0" unicode="&#xe6e0;" 
d="M253 209l-232 112q-5 2 -5 7t5 7l232 112q3 1 6 0l232 -112q5 -2 5 -7t-5 -7l-232 -112q-1 -1 -3 -1t-3 1zM42 328l214 -103l214 103l-214 103zM253 129l-232 112q-5 2 -5 7t5 7l49 24q7 4 11 -4q3 -6 -4 -10l-35 -17l214 -103l214 103l-35 17q-7 4 -4 10q4 8 11 4
l49 -24q5 -2 5 -7t-5 -7l-232 -112q-1 -1 -3 -1t-3 1zM253 49l-232 112q-5 2 -5 7t5 7l49 24q7 4 11 -4q3 -6 -4 -10l-35 -17l214 -103l214 103l-35 17q-7 4 -4 10q4 8 11 4l49 -24q5 -2 5 -7t-5 -7l-232 -112q-1 -1 -3 -1t-3 1z" />
    <glyph glyph-name="uniE6E1" unicode="&#xe6e1;" 
d="M440 464q8 0 8 -8v-384q0 -8 -8 -8t-8 8v376h-336q-16 0 -16 -16h328q8 0 8 -8v-384q0 -8 -8 -8h-312q-14 0 -23 9t-9 23v368q0 14 9 23t23 9h344zM304 235l18 19q6 6 12 0l18 -19v181h-48v-181zM80 416v-352q0 -16 16 -16h304v368h-32v-200q0 -5 -5 -7q-1 -1 -3 -1t-6 2
l-26 27l-26 -27q-5 -4 -9 -1q-5 2 -5 7v200h-208z" />
    <glyph glyph-name="uniE6E2" unicode="&#xe6e2;" 
d="M360 336h-176q-8 0 -8 8t8 8h176q8 0 8 -8t-8 -8zM328 288h-112q-8 0 -8 8t8 8h112q8 0 8 -8t-8 -8zM400 464q14 0 23 -9t9 -23v-368q0 -14 -9 -23t-23 -9h-272q-14 0 -23 9t-9 23v32h-8q-8 0 -8 8t8 8h8v32h-8q-8 0 -8 8t8 8h8v32h-8q-8 0 -8 8t8 8h8v32h-8q-8 0 -8 8
t8 8h8v32h-8q-8 0 -8 8t8 8h8v32h-8q-8 0 -8 8t8 8h8v32h-8q-8 0 -8 8t8 8h8v32q0 14 9 23t23 9h272zM416 432q0 16 -16 16h-272q-16 0 -16 -16v-32h24q8 0 8 -8t-8 -8h-24v-32h24q8 0 8 -8t-8 -8h-24v-32h24q8 0 8 -8t-8 -8h-24v-32h24q8 0 8 -8t-8 -8h-24v-32h24q8 0 8 -8
t-8 -8h-24v-32h24q8 0 8 -8t-8 -8h-24v-32h24q8 0 8 -8t-8 -8h-24v-32q0 -16 16 -16h272q16 0 16 16v368z" />
    <glyph glyph-name="uniE6E3" unicode="&#xe6e3;" 
d="M312 128h-176q-8 0 -8 8t8 8h176q8 0 8 -8t-8 -8zM360 320h-224q-8 0 -8 8t8 8h224q8 0 8 -8t-8 -8zM360 272h-224q-8 0 -8 8t8 8h224q8 0 8 -8t-8 -8zM360 224h-224q-8 0 -8 8t8 8h224q8 0 8 -8t-8 -8zM360 176h-224q-8 0 -8 8t8 8h224q8 0 8 -8t-8 -8zM384 448
q14 0 23 -9t9 -23v-352q0 -14 -9 -23t-23 -9h-272q-14 0 -23 9t-9 23v352q0 14 9 23t23 9h32v24q0 8 8 8t8 -8v-24h32v24q0 8 8 8t8 -8v-24h32v24q0 8 8 8t8 -8v-24h32v24q0 8 8 8t8 -8v-24h32v24q0 8 8 8t8 -8v-24h32zM400 416q0 16 -16 16h-32v-24q0 -8 -8 -8t-8 8v24h-32
v-24q0 -8 -8 -8t-8 8v24h-32v-24q0 -8 -8 -8t-8 8v24h-32v-24q0 -8 -8 -8t-8 8v24h-32v-24q0 -8 -8 -8t-8 8v24h-32q-16 0 -16 -16v-352q0 -16 16 -16h272q16 0 16 16v352z" />
    <glyph glyph-name="uniE6E4" unicode="&#xe6e4;" 
d="M414 374q2 -4 2 -6v-304q0 -14 -9 -23t-23 -9h-272q-14 0 -23 9t-9 23v368q0 14 9 23t23 9h208q2 0 6 -2zM320 445v-61q0 -16 16 -16h61zM384 48q16 0 16 16v288h-64q-14 0 -23 9t-9 23v64h-192q-16 0 -16 -16v-368q0 -16 16 -16h272zM360 208h-224q-8 0 -8 8t8 8h224
q8 0 8 -8t-8 -8zM360 160h-224q-8 0 -8 8t8 8h224q8 0 8 -8t-8 -8zM312 112h-176q-8 0 -8 8t8 8h176q8 0 8 -8t-8 -8zM210 314q30 -17 30 -50q0 -8 -8 -8t-8 8q0 16 -12 28t-28 12t-28 -12t-12 -28q0 -8 -8 -8t-8 8q0 33 30 50q-14 12 -14 30q0 16 12 28t28 12t28 -12
t12 -28q0 -18 -14 -30zM167 361q-7 -7 -7 -17t7 -17t17 -7t17 7t7 17t-7 17t-17 7t-17 -7z" />
    <glyph glyph-name="uniE6E5" unicode="&#xe6e5;" 
d="M384 123v-43h-256v43h256zM384 177h-256l128 181z" />
    <glyph glyph-name="uniE6E6" unicode="&#xe6e6;" 
d="M85 322l182 -128l-182 -128v256zM459 194l-182 -128v256z" />
    <glyph glyph-name="uniE6E7" unicode="&#xe6e7;" 
d="M128 353h85v-298h-85v298zM384 353v-298h-85v298h85z" />
    <glyph glyph-name="uniE6E8" unicode="&#xe6e8;" 
d="M405 224l-234 -149v298z" />
    <glyph glyph-name="uniE6E9" unicode="&#xe6e9;" 
d="M53 194l182 128v-256zM427 322v-256l-182 128z" />
    <glyph glyph-name="uniE6EA" unicode="&#xe6ea;" 
d="M128 322h256v-256h-256v256z" />
    <glyph glyph-name="uniE6EB" unicode="&#xe6eb;" 
d="M192 248v160q0 30 21 51t51 21t51 -21t21 -51v-160q0 -30 -21 -51t-51 -21t-51 21t-21 51zM208 408v-160q0 -23 16.5 -39.5t39.5 -16.5t39.5 16.5t16.5 39.5v160q0 23 -16.5 39.5t-39.5 16.5t-39.5 -16.5t-16.5 -39.5zM352 328v-80q0 -37 -25.5 -62.5t-62.5 -25.5
t-62.5 25.5t-25.5 62.5v80q0 8 -8 8t-8 -8v-80q0 -41 27.5 -70.5t68.5 -33.5v-96h-40q-8 0 -8 -8t8 -8h96q8 0 8 8t-8 8h-40v96q41 4 68.5 33.5t27.5 70.5v80q0 8 -8 8t-8 -8z" />
    <glyph glyph-name="uniE6EE" unicode="&#xe6ee;" 
d="M488 64h-464q-8 0 -8 8v352q0 8 8 8h464q8 0 8 -8v-352q0 -8 -8 -8zM32 80h448v336h-448v-336zM162 286q-14 -14 -34 -14t-34 14t-14 34t14 34t34 14t34 -14t14 -34t-14 -34zM151 343q-9 9 -23 9t-23 -9t-9 -23t9 -23t23 -9t23 9t9 23t-9 23zM56 144q-1 0 -5 2
q-6 4 -1 11q4 6 15.5 19t35.5 30.5t43 17.5q23 0 53 -26q26 -22 43 -22q16 0 52 42q46 54 76 54q50 0 95 -68q3 -6 -3 -11q-6 -3 -11 3q-4 7 -11.5 17t-29 26.5t-40.5 16.5q-21 0 -64 -49q-41 -47 -64 -47t-53 26q-26 22 -43 22q-19 0 -43 -20.5t-39 -40.5q-2 -3 -6 -3z" />
    <glyph glyph-name="uniE6EF" unicode="&#xe6ef;" 
d="M488 32h-464q-8 0 -8 8v352q0 8 8 8h464q8 0 8 -8v-352q0 -8 -8 -8zM32 48h448v336h-448v-336zM162 254q-14 -14 -34 -14t-34 14t-14 34t14 34t34 14t34 -14t14 -34t-14 -34zM151 311q-9 9 -23 9t-23 -9t-9 -23t9 -23t23 -9t23 9t9 23t-9 23zM56 112q-1 0 -5 2
q-6 4 -1 11q4 6 15.5 19t35.5 30.5t43 17.5q23 0 53 -26q26 -22 43 -22q16 0 52 42q46 54 76 54q50 0 95 -68q3 -6 -3 -11q-6 -3 -11 3q-4 7 -11.5 17t-29 26.5t-40.5 16.5q-21 0 -64 -49q-41 -47 -64 -47t-53 26q-26 22 -43 22q-19 0 -43 -20.5t-39 -40.5q-2 -3 -6 -3z
M456 416h-400q-8 0 -8 8t8 8h400q8 0 8 -8t-8 -8zM424 448h-336q-8 0 -8 8t8 8h336q8 0 8 -8t-8 -8z" />
    <glyph glyph-name="uniE6F0" unicode="&#xe6f0;" 
d="M409 319q23 -3 39 -21t16 -42t-16 -42t-39 -21q14 -19 12.5 -43t-18.5 -41q-19 -19 -45 -19q-21 0 -39 13q-3 -23 -21 -39t-42 -16t-42 16t-21 39q-18 -13 -39 -13q-26 0 -45 19q-17 17 -18.5 41t12.5 43q-23 3 -39 21t-16 42t16 42t39 21q-14 19 -12.5 43t18.5 41
q19 19 45 19q21 0 39 -13q3 23 21 39t42 16t42 -16t21 -39q18 13 39 13q26 0 45 -19q17 -17 18.5 -41t-12.5 -43zM392 324q14 14 14 34t-14 34t-34 14t-34 -14l-4 -4v-52q0 -10 -3 -19q9 3 19 3h52zM304 176q0 16 -9.5 29t-24.5 17q-16 -32 9 -57l25 -25v36zM233 165
q25 25 9 57q-15 -4 -24.5 -17t-9.5 -29v-36zM208 336q0 -16 9.5 -29t24.5 -17q16 32 -9 57l-25 25v-36zM279 347q-25 -25 -9 -57q15 4 24.5 17t9.5 29v36zM272 256v7q-3 3 -5 4q-1 2 -4 5h-7h-7q-3 -3 -4 -5q-2 -1 -5 -4v-7v-7q3 -3 5 -4q1 -2 4 -5h7h7q3 3 4 5q2 1 5 4v7z
M222 270q-10 34 -46 34h-36l25 -25q16 -14 34 -14q11 0 23 5zM222 242q-12 5 -23 5q-18 0 -34 -14l-25 -25h36q36 0 46 34zM290 242q10 -34 46 -34h36l-25 25q-16 14 -34 14q-11 0 -23 -5zM290 270q9 -5 23 -5q19 0 33 14l26 25h-36q-36 0 -46 -34zM304 400q0 20 -14 34
t-34 14t-34 -14t-14 -34v-5l37 -37q8 -10 11 -16q3 6 11 16l37 37v5zM188 392q-14 14 -34 14t-34 -14t-14 -34t14 -34l4 -4h52q10 0 19 -3q-3 9 -3 19v52zM112 304q-20 0 -34 -14t-14 -34t14 -34t34 -14h5l37 37q10 8 15 11q-5 3 -15 11l-37 37h-5zM120 188q-14 -14 -14 -34
t14 -34t34 -14t34 14l4 4v52q0 10 3 19q-9 -3 -19 -3h-52zM208 112q0 -20 14 -34t34 -14t34 14t14 34v5l-37 37q-8 10 -11 16q-3 -6 -11 -16l-37 -36v-6zM324 120q14 -14 34 -14t34 14t14 34t-14 34l-4 4h-52q-10 0 -19 3q3 -9 3 -19v-52zM400 208q20 0 34 14t14 34t-14 34
t-34 14h-5l-37 -37q-10 -8 -15 -11q5 -3 15 -11l36 -37h6z" />
    <glyph glyph-name="uniE6F1" unicode="&#xe6f1;" 
d="M366 302q17 31 -8 56q-14 14 -34 14q-12 0 -22 -6q-4 15 -17 24.5t-29 9.5t-29 -9.5t-17 -24.5q-10 6 -22 6q-20 0 -34 -14q-25 -25 -8 -56q-15 -4 -24.5 -17t-9.5 -29q0 -36 34 -46q-17 -31 8 -56q14 -14 34 -14q12 0 22 6q4 -15 17 -24.5t29 -9.5t29 9.5t17 24.5
q10 -6 22 -6q20 0 34 14q25 25 8 56q34 10 34 46t-34 46zM288 179l-9 9q-14 14 -8 32q17 -8 17 -28v-13zM233 188l-9 -9v13q0 20 17 28q6 -18 -8 -32zM224 333l9 -9q14 -14 8 -32q-17 8 -17 28v13zM279 324l9 9v-13q0 -20 -17 -28q-6 18 8 32zM273 249q-1 -1 -3 -2t-3 -2
t-2 -3t-2 -3q-2 1 -7 1t-7 -1q-1 1 -2 3t-2 3t-3 2t-3 2q1 2 1 7t-1 7q1 1 3 2t3 2t2 3t2 3q2 -1 7 -1t7 1q1 -1 2 -3t2 -3t3 -2t3 -2q-1 -2 -1 -7t1 -7zM220 271q-20 -5 -32 8l-9 9h13q20 0 28 -17zM220 241q-8 -17 -28 -17h-13l9 9q10 10 23 10q3 0 9 -2zM292 241q6 2 9 2
q13 0 23 -10l9 -9h-13q-20 0 -28 17zM292 271q8 17 28 17h13l-9 -9q-12 -13 -32 -8zM347 347q19 -21 2 -43h-29q-11 0 -21 -5q5 10 5 21v29q10 7 20 7q12 0 23 -9zM288 356l-21 -21q-7 -7 -11 -18q-4 11 -11 18l-21 21q2 11 11 19.5t21 8.5t21 -8.5t11 -19.5zM165 347
q11 9 23 9q10 0 20 -7v-29q0 -11 5 -21q-10 5 -21 5h-29q-17 22 2 43zM156 288l21 -21q8 -8 18 -11q-10 -3 -18 -11l-21 -21q-11 2 -19.5 11t-8.5 21t8.5 21t19.5 11zM165 165q-19 21 -2 43h29q11 0 21 5q-5 -12 -5 -21v-29q-9 -7 -21.5 -6.5t-21.5 8.5zM224 156l21 21
q7 7 11 18q4 -11 11 -18l21 -21q-1 -12 -10.5 -20t-21.5 -8t-21 8.5t-11 19.5zM347 165q-9 -8 -21.5 -8.5t-21.5 6.5v29q0 11 -5 21q12 -5 21 -5h29q17 -22 -2 -43zM356 224l-21 21q-8 8 -18 11q10 3 18 11l21 21q12 -1 20 -10.5t8 -21.5t-8 -21.5t-20 -10.5zM488 80h-464
q-8 0 -8 8v336q0 8 8 8h464q8 0 8 -8v-336q0 -8 -8 -8zM32 96h448v320h-448v-320z" />
    <glyph glyph-name="uniE6F2" unicode="&#xe6f2;" 
d="M366 270q17 31 -8 56q-14 14 -34 14q-12 0 -22 -6q-4 15 -17 24.5t-29 9.5t-29 -9.5t-17 -24.5q-10 6 -22 6q-20 0 -34 -14q-25 -25 -8 -56q-15 -4 -24.5 -17t-9.5 -29t9.5 -29t24.5 -17q-17 -31 8 -56q14 -14 34 -14q12 0 22 6q4 -15 17 -24.5t29 -9.5t29 9.5t17 24.5
q10 -6 22 -6q20 0 34 14q25 25 8 56q34 10 34 46t-34 46zM288 147l-9 9q-14 14 -8 32q17 -8 17 -28v-13zM233 156l-9 -9v13q0 20 17 28q6 -18 -8 -32zM224 301l9 -9q14 -14 8 -32q-17 8 -17 28v13zM279 292l9 9v-13q0 -20 -17 -28q-6 18 8 32zM273 217q-1 0 -3 -1.5t-3 -2.5
t-2 -3t-2 -3q-2 1 -7 1t-7 -1q-1 1 -2 3t-2 3t-3 2.5t-3 1.5q1 2 1 7t-1 7q1 1 3 2.5t3 1.5q1 1 2 3t2 3q2 -1 7 -1t7 1q1 -1 2 -3t2 -3q1 0 3 -1.5t3 -2.5q-1 -2 -1 -7t1 -7zM220 239q-6 -2 -9 -2q-13 0 -23 10l-9 9h13q20 0 28 -17zM220 209q-8 -17 -28 -17h-13l9 9
q10 10 23 10q3 0 9 -2zM292 209q6 2 9 2q13 0 23 -10l9 -9h-13q-20 0 -28 17zM292 239q8 17 28 17h13l-9 -9q-10 -10 -23 -10q-3 0 -9 2zM347 315q19 -21 2 -43h-29q-11 0 -21 -5q5 10 5 21v29q10 7 20 7q12 0 23 -9zM288 324l-21 -21q-7 -8 -11 -18q-4 10 -11 18l-21 21
q2 11 11 19.5t21 8.5t21 -8.5t11 -19.5zM165 315q11 9 23 9q10 0 20 -7v-29q0 -11 5 -21q-10 5 -21 5h-29q-17 22 2 43zM156 256l21 -21q8 -8 18 -11q-10 -3 -18 -11l-21 -21q-11 2 -19.5 11t-8.5 21t8.5 21t19.5 11zM165 133q-19 21 -2 43h29q11 0 21 5q-5 -12 -5 -21v-29
q-9 -7 -21.5 -6.5t-21.5 8.5zM224 124l21 21q7 7 11 18q4 -11 11 -18l21 -21q-1 -12 -10.5 -20t-21.5 -8t-21 8.5t-11 19.5zM347 133q-9 -8 -21.5 -8.5t-21.5 6.5v29q0 11 -5 21q12 -5 21 -5h29q17 -22 -2 -43zM356 192l-21 21q-8 8 -18 11q10 3 18 11l21 21q12 -1 20 -10.5
t8 -21.5t-8 -21.5t-20 -10.5zM488 48h-464q-8 0 -8 8v336q0 8 8 8h464q8 0 8 -8v-336q0 -8 -8 -8zM32 64h448v320h-448v-320zM456 416h-400q-8 0 -8 8t8 8h400q8 0 8 -8t-8 -8zM424 448h-336q-8 0 -8 8t8 8h336q8 0 8 -8t-8 -8z" />
    <glyph glyph-name="uniE6F3" unicode="&#xe6f3;" 
d="M488 64h-464q-8 0 -8 8v352q0 8 8 8h464q8 0 8 -8v-352q0 -8 -8 -8zM32 80h448v336h-448v-336zM162 286q-14 -14 -34 -14t-34 14t-14 34t14 34t34 14t34 -14t14 -34t-14 -34zM151 343q-9 9 -23 9t-23 -9t-9 -23t9 -23t23 -9t23 9t9 23t-9 23zM462 190l-112 112
q-6 6 -12 0l-90 -91l-42 43q-6 6 -12 0l-144 -144q-6 -6 0 -12q4 -2 6 -2t6 2l138 139l90 -91q6 -6 12 0t0 12l-43 42l85 85l106 -107q4 -2 6 -2t6 2q6 6 0 12z" />
    <glyph glyph-name="uniE6F4" unicode="&#xe6f4;" 
d="M488 32h-464q-8 0 -8 8v352q0 8 8 8h464q8 0 8 -8v-352q0 -8 -8 -8zM32 48h448v336h-448v-336zM162 254q-14 -14 -34 -14t-34 14t-14 34t14 34t34 14t34 -14t14 -34t-14 -34zM151 311q-9 9 -23 9t-23 -9t-9 -23t9 -23t23 -9t23 9t9 23t-9 23zM462 158l-112 112
q-6 6 -12 0l-90 -91l-42 43q-6 6 -12 0l-144 -144q-6 -6 0 -12q4 -2 6 -2t6 2l138 139l90 -91q6 -6 12 0t0 12l-43 42l85 85l106 -107q4 -2 6 -2t6 2q6 6 0 12zM456 416h-400q-8 0 -8 8t8 8h400q8 0 8 -8t-8 -8zM424 448h-336q-8 0 -8 8t8 8h336q8 0 8 -8t-8 -8z" />
    </font>
</defs>
</svg>
